<svg width="20" height="20" viewBox="0 0 20 20" fill="none" xmlns="http://www.w3.org/2000/svg">
<g clip-path="url(#clip0_521_778)">
<path d="M7 16.5457H13C14.6569 16.5457 16 15.2025 16 13.5457V8.03926C16 7.24356 15.6839 6.48046 15.1212 5.91785L13.1287 3.92546C12.5661 3.3629 11.803 3.04688 11.0074 3.04688H7C5.34315 3.04688 4 4.39002 4 6.04687V13.5457C4 15.2025 5.34315 16.5457 7 16.5457Z" stroke="#316094"/>
<path d="M11.5 3.04688V4.54688C11.5 6.20373 12.8432 7.54688 14.5 7.54688H16" stroke="#316094"/>
<path d="M10 8.29688V12.7969" stroke="#316094"/>
<path d="M12.25 10.5469H7.75" stroke="#316094"/>
</g>
<defs>
<clipPath id="clip0_521_778">
<rect width="14" height="16" fill="white" transform="translate(3 2)"/>
</clipPath>
</defs>
</svg>
