<svg width="20" height="20" viewBox="0 0 20 20" fill="none" xmlns="http://www.w3.org/2000/svg">
<g clip-path="url(#clip0_503_780)">
<path d="M6.79334 16.1642C6.58418 16.2353 6.47225 16.4625 6.54334 16.6717C6.61444 16.8808 6.84163 16.9928 7.05079 16.9217L6.79334 16.1642ZM10.5428 13.6816C10.3219 13.6816 10.1428 13.8607 10.1428 14.0816C10.1428 14.3025 10.3219 14.4816 10.5428 14.4816V13.6816ZM11.7658 13.8016C11.6112 13.9593 11.6136 14.2125 11.7714 14.3672C11.9291 14.5219 12.1823 14.5194 12.337 14.3617L11.7658 13.8016ZM7.05079 16.9217C7.19791 16.8717 7.43279 16.8554 7.76995 16.8799C8.09886 16.9038 8.47807 16.9621 8.89547 17.0289C9.70626 17.1588 10.6689 17.3247 11.485 17.2489L11.411 16.4523C10.7184 16.5167 9.87069 16.3749 9.02198 16.239C8.60963 16.1729 8.19681 16.1088 7.82797 16.082C7.46739 16.0558 7.09882 16.0604 6.79334 16.1642L7.05079 16.9217ZM11.485 17.2489C12.0589 17.1956 12.5042 17.1732 12.9221 17.0961C13.3606 17.0152 13.776 16.8749 14.3417 16.5934L13.9853 15.8772C13.4711 16.133 13.1271 16.2448 12.7769 16.3094C12.4062 16.3778 12.0337 16.3945 11.411 16.4523L11.485 17.2489ZM14.3417 16.5934C14.8666 16.3322 15.3868 15.9028 15.8482 15.4508C16.3135 14.995 16.7384 14.4965 17.0715 14.0772L16.4451 13.5796C16.1243 13.9835 15.7219 14.4546 15.2883 14.8794C14.8507 15.3081 14.4005 15.6706 13.9853 15.8772L14.3417 16.5934ZM14.698 12.0423L13.503 13.2609L14.0742 13.821L15.2692 12.6025L14.698 12.0423ZM12.5085 13.6816H10.5428V14.4816H12.5085V13.6816ZM13.503 13.2609C13.2379 13.5312 12.88 13.6816 12.5085 13.6816V14.4816C13.0972 14.4816 13.6603 14.2431 14.0742 13.821L13.503 13.2609ZM16.7072 11.8403C16.0752 11.4106 15.2331 11.4967 14.698 12.0423L15.2692 12.6025C15.5348 12.3316 15.9473 12.291 16.2575 12.5019L16.7072 11.8403ZM17.0715 14.0772C17.6421 13.3587 17.437 12.3363 16.7072 11.8403L16.2575 12.5019C16.6286 12.7542 16.7071 13.2497 16.4451 13.5796L17.0715 14.0772ZM3.60306 11.405H6.01688V10.6049H3.60306V11.405ZM6.22034 11.6203V17.1583H7.02034V11.6203H6.22034ZM6.01688 17.3736H3.60306V18.1736H6.01688V17.3736ZM3.39961 17.1583V11.6203H2.59961V17.1583H3.39961ZM3.60306 17.3736C3.49801 17.3736 3.39961 17.2846 3.39961 17.1583H2.59961C2.59961 17.7116 3.04156 18.1736 3.60306 18.1736V17.3736ZM6.22034 17.1583C6.22034 17.2846 6.12194 17.3736 6.01688 17.3736V18.1736C6.57839 18.1736 7.02034 17.7116 7.02034 17.1583H6.22034ZM6.01688 11.405C6.12194 11.405 6.22034 11.494 6.22034 11.6203H7.02034C7.02034 11.0669 6.57839 10.6049 6.01688 10.6049V11.405ZM3.60306 10.6049C3.04156 10.6049 2.59961 11.0669 2.59961 11.6203H3.39961C3.39961 11.494 3.49801 11.405 3.60306 11.405V10.6049ZM7.10375 12.592L8.0222 12.1237L7.65883 11.411L6.74038 11.8793L7.10375 12.592ZM9.72962 11.7126H9.9771V10.9126H9.72962V11.7126ZM10.9814 11.8498L12.2498 12.2025L12.4641 11.4318L11.1957 11.079L10.9814 11.8498ZM12.4733 13.0802L11.7658 13.8016L12.337 14.3617L13.0444 13.6404L12.4733 13.0802ZM12.2498 12.2025C12.6197 12.3054 12.7568 12.7911 12.4733 13.0802L13.0444 13.6404C13.7438 12.9272 13.4353 11.7018 12.4641 11.4318L12.2498 12.2025ZM9.9771 11.7126C10.3163 11.7126 10.654 11.7587 10.9814 11.8498L11.1957 11.079C10.7987 10.9686 10.3888 10.9126 9.9771 10.9126V11.7126ZM8.0222 12.1237C8.55271 11.8533 9.13726 11.7126 9.72962 11.7126V10.9126C9.01042 10.9126 8.30141 11.0834 7.65883 11.411L8.0222 12.1237ZM14.0652 6.69764C14.0652 7.84346 13.1563 8.75896 12.0514 8.75896V9.55896C13.6128 9.55896 14.8652 8.27052 14.8652 6.69764H14.0652ZM12.0514 8.75896C10.9465 8.75896 10.0376 7.84346 10.0376 6.69764H9.23761C9.23761 8.27052 10.4901 9.55896 12.0514 9.55896V8.75896ZM10.0376 6.69764C10.0376 5.55182 10.9465 4.63632 12.0514 4.63632V3.83632C10.4901 3.83632 9.23761 5.12476 9.23761 6.69764H10.0376ZM12.0514 4.63632C13.1563 4.63632 14.0652 5.55182 14.0652 6.69764H14.8652C14.8652 5.12476 13.6128 3.83632 12.0514 3.83632V4.63632ZM9.63761 6.29764C8.53272 6.29764 7.62379 5.38214 7.62379 4.23632H6.82379C6.82379 5.8092 8.07627 7.09764 9.63761 7.09764V6.29764ZM7.62379 4.23632C7.62379 3.0905 8.53272 2.175 9.63761 2.175V1.375C8.07627 1.375 6.82379 2.66344 6.82379 4.23632H7.62379ZM9.63761 2.175C10.7425 2.175 11.6514 3.0905 11.6514 4.23632H12.4514C12.4514 2.66344 11.1989 1.375 9.63761 1.375V2.175Z" fill="#316094"/>
</g>
<defs>
<clipPath id="clip0_503_780">
<rect width="16" height="18" fill="white" transform="translate(2 1)"/>
</clipPath>
</defs>
</svg>
