<svg width="20" height="20" viewBox="0 0 20 20" fill="none" xmlns="http://www.w3.org/2000/svg">
<g clip-path="url(#clip0_521_778)">
<path d="M5.9502 12.5843C5.9502 14.2136 7.27096 15.5343 8.9002 15.5343H11.0627C12.7196 15.5343 14.0627 14.1912 14.0627 12.5344V10.4219C14.0627 8.76502 12.7196 7.42188 11.0627 7.42188H9.33041" stroke="#316094"/>
<path d="M4.47461 17.7516C4.47461 16.5297 5.46518 15.5391 6.68711 15.5391H12.5871C13.809 15.5391 14.7996 16.5297 14.7996 17.7516" stroke="#316094"/>
<path d="M3 12.5859H8.9" stroke="#316094"/>
<path d="M9.90667 3L11.9926 5.08597L8.3422 8.7364C7.76618 9.31243 6.83226 9.31243 6.25624 8.7364C5.68021 8.16038 5.68021 7.22646 6.25624 6.65044L9.90667 3Z" stroke="#316094"/>
<path d="M11.1123 3.7375L11.8498 3" stroke="#316094"/>
<path d="M5.21289 9.63594L5.95039 8.89844" stroke="#316094"/>
</g>
<defs>
<clipPath id="clip0_521_778">
<rect width="13" height="16" fill="white" transform="translate(3 2)"/>
</clipPath>
</defs>
</svg>
