<svg width="22" height="21" viewBox="0 0 22 21" fill="none" xmlns="http://www.w3.org/2000/svg">
<g clip-path="url(#clip0_318_618)">
<path d="M5.91637 16.9508C5.55265 17.7706 5.43444 18.6847 5.12528 19.5233C4.9456 20.2207 4.32322 20.0388 3.91592 19.6458C1.4371 16.7833 -0.440616 9.8441 2.49741 6.62329C3.99928 4.89149 5.42584 7.31805 8.00319 7.31806C10.5805 7.31806 12.026 4.90749 13.5181 6.62329C16.4574 9.86885 14.5259 16.7807 12.0359 19.6458C11.6526 20.0749 10.9907 20.2021 10.8175 19.5233C10.5083 18.6847 10.3992 17.7706 10.0355 16.9508C9.22596 14.9315 6.75044 15.0108 5.91637 16.9508Z" stroke="#316094" stroke-miterlimit="10"/>
<path d="M18.2112 1.20107C18.3104 0.932977 18.6896 0.932976 18.7888 1.20107L19.2826 2.53549C19.3138 2.61977 19.3802 2.68623 19.4645 2.71742L20.7989 3.2112C21.067 3.3104 21.067 3.6896 20.7989 3.7888L19.4645 4.28258C19.3802 4.31377 19.3138 4.38023 19.2826 4.46452L18.7888 5.79893C18.6896 6.06702 18.3104 6.06703 18.2112 5.79893L17.7174 4.46452C17.6862 4.38023 17.6198 4.31377 17.5355 4.28258L16.2011 3.7888C15.933 3.6896 15.933 3.3104 16.2011 3.2112L17.5355 2.71742C17.6198 2.68623 17.6862 2.61977 17.7174 2.53549L18.2112 1.20107Z" stroke="#316094" stroke-width="0.7" stroke-linejoin="round"/>
</g>
<defs>
<clipPath id="clip0_318_618">
<rect width="22" height="21" fill="white"/>
</clipPath>
</defs>
</svg>
