<svg width="16" height="14" viewBox="0 0 16 14" fill="none" xmlns="http://www.w3.org/2000/svg">
<path d="M1.5 9.14286V7.14634C1.5 6.17648 2.22754 5.39024 3.125 5.39024M1.5 9.14286C1.5 10.1127 2.22754 10.899 3.125 10.899H12.875C13.7725 10.899 14.5 10.1127 14.5 9.14286M1.5 9.14286V11.8293C1.5 12.4758 1.98502 13 2.58333 13H3.66667C4.26498 13 4.75 12.4758 4.75 11.8293V10.899M3.125 5.39024H12.875C13.7725 5.39024 14.5 6.17648 14.5 7.14634V9.14286M3.125 5.39024L3.99388 1.86908C4.12034 1.35659 4.54983 1 5.04063 1H11.0108C11.4771 1 11.8911 1.32245 12.0386 1.80051L13.1458 5.39024M14.5 9.14286V11.8293C14.5 12.4758 14.015 13 13.4167 13H12.3333C11.735 13 11.25 12.4758 11.25 11.8293V10.899M3.39583 8.02439H5.29167M10.7083 8.02439H12.6042" stroke="#316094" stroke-linecap="round" stroke-linejoin="round"/>
</svg>
