<svg width="40" height="50" viewBox="0 0 40 50" fill="none" xmlns="http://www.w3.org/2000/svg">
<g clip-path="url(#clip0_315_546)">
<g opacity="0.3">
<path d="M24.3989 9.78232C18.39 13.4801 15.1544 7.47119 7.7588 7.47119C5.9099 7.47119 2.11965 8.95031 1.74987 14.8668C1.38009 20.7833 4.6773 30.5824 6.37212 34.7425C8.8202 40.7514 5.9101 48.147 10.9946 49.0714C17.4657 50.248 13.3057 31.9691 20.2391 32.4313C25.7858 32.4313 23.4747 49.9959 29.4836 49.0714C34.5681 49.0714 31.7947 39.8269 34.1058 34.2802C35.7328 30.3755 40.577 14.8668 37.3414 9.78232" stroke="white" stroke-width="1.3" stroke-linecap="round"/>
<path d="M31.7949 1V11.1689" stroke="white" stroke-width="1.3" stroke-linecap="round" stroke-linejoin="round"/>
<path d="M36.8789 6.08447H26.71" stroke="white" stroke-width="1.3" stroke-linecap="round" stroke-linejoin="round"/>
</g>
</g>
<defs>
<clipPath id="clip0_315_546">
<rect width="39" height="50" fill="white" transform="translate(0.721191)"/>
</clipPath>
</defs>
</svg>
