<svg width="43" height="51" viewBox="0 0 43 51" fill="none" xmlns="http://www.w3.org/2000/svg">
<g clip-path="url(#clip0_315_469)">
<g opacity="0.3">
<path d="M33.6266 14.9007H9.37311C6.60128 4.61419 11.298 1.34752 13.9928 1C15.8215 1.5792 19.883 2.80709 21.4999 3.08511C23.1168 3.36312 27.5632 1.81088 29.5844 1C36.052 3.78015 34.974 11.4255 33.6266 14.9007Z" stroke="white" stroke-width="1.2" stroke-linejoin="round"/>
<path d="M11.3944 35.7515C12.838 40.2693 13.1268 48.2622 15.4366 48.2622C18.3239 48.2622 16.8803 34.3615 21.5 31.9288C26.4084 35.0565 24.3873 48.6097 27.8521 48.2622C30.1255 48.5662 30.41 40.6247 31.6056 37.0035M11.3944 35.7515C10.9502 34.3615 9.37324 30.8864 1 31.9288V49.9998H42V31.9288C39.3052 31.6971 33.569 32.1373 32.1831 35.7515C31.9663 36.0559 31.7767 36.4855 31.6056 37.0035M11.3944 35.7515L9.9507 28.8012C9.25775 26.8551 9.66197 24.9785 11.3944 24.9785C16.784 24.9785 28.1986 24.9785 30.7394 24.9785C33.2803 24.9785 33.338 27.527 33.0493 28.8012L31.6056 37.0035" stroke="white" stroke-width="1.2" stroke-linejoin="round"/>
<path d="M13.9932 24.6314L14.2819 20.4612C14.3781 19.882 14.8594 18.7236 16.0143 18.7236C17.1692 18.7236 21.3077 18.7236 23.2326 18.7236" stroke="white" stroke-width="1.2" stroke-linejoin="round"/>
<path d="M25.5425 18.7236H27.2749C27.7561 18.8395 28.7185 19.4187 28.7185 20.8087L29.0073 25.3265" stroke="white" stroke-width="1.2" stroke-linejoin="round"/>
</g>
</g>
<defs>
<clipPath id="clip0_315_469">
<rect width="43" height="51" fill="white"/>
</clipPath>
</defs>
</svg>
