<svg width="49" height="51" viewBox="0 0 49 51" fill="none" xmlns="http://www.w3.org/2000/svg">
<g clip-path="url(#clip0_315_458)">
<g opacity="0.3">
<path d="M31.4021 21.6604H7.19196C5.95316 21.6604 4.77157 21.0895 4.18493 19.9985C3.16674 18.1047 1.95404 15.0588 1.55095 11.3302C1.03451 6.55314 5.93287 2.89673 9.03364 1.34821C9.52113 1.10476 10.0611 1 10.6059 1H13.632C14.0681 1 14.936 1.27708 15.8937 1.64639C17.8207 2.38952 20.586 2.28774 22.5791 1.74609C23.5381 1.48548 24.5329 1.25212 25.3145 1.08398C25.5794 1.027 25.8496 1 26.1206 1H28.1405C28.9541 1 29.7541 1.23949 30.3874 1.75025C32.7999 3.6958 36.325 7.43361 36.5686 11.3302C36.7766 14.6581 35.5819 17.8701 34.475 19.9488C33.8793 21.0675 32.6695 21.6604 31.4021 21.6604Z" stroke="white" stroke-width="1.2" stroke-linejoin="round"/>
<path d="M10.6549 21.6604L12.6052 25.3984C12.7055 25.5908 12.8118 25.783 12.8655 25.9932C13.4672 28.3446 14.9345 42.4959 18.709 42.4959C25.0121 42.1457 22.9111 28.1387 27.1132 28.1387C30.7198 28.1387 29.261 40.7255 34.3784 42.3286C35.0981 42.5541 35.8685 42.2896 36.3713 41.7275C38.211 39.6708 41.3302 33.9716 43.8136 22.1792C43.8853 21.8387 44.0028 21.5052 44.1414 21.186C44.7641 19.7527 45.7234 16.8355 45.8476 13.6063C45.9692 10.4444 42.5801 6.96573 40.1951 5.0725C39.5578 4.56665 38.7584 4.32666 37.9448 4.32666H34.8171C34.5836 4.32666 33.9767 4.43171 33.4164 4.85192" stroke="white" stroke-width="1.2" stroke-linejoin="round"/>
<path d="M43.6037 21.9102C43.6037 22.9894 43.3878 26.443 42.5244 27.3063" stroke="white" stroke-width="1.5" stroke-linejoin="round"/>
<path d="M42.5244 27.3064C42.5244 28.3856 40.6897 34.5373 39.8263 35.4007" stroke="white" stroke-width="1.5" stroke-linejoin="round"/>
<path d="M41.2454 22.7285L48.1062 47.1887C48.5549 48.7886 47.3524 50.3749 45.6907 50.3749C44.5466 50.3749 43.5475 49.6008 43.2616 48.493L36.9259 23.9423C36.8054 23.4754 36.6015 23.0342 36.324 22.6398L30.7161 14.6706C30.3818 14.1956 30.533 13.5355 31.0408 13.2534C31.4132 13.0465 31.8766 13.1046 32.1865 13.3969L40.1389 20.8992C40.6669 21.3973 41.0494 22.0296 41.2454 22.7285Z" stroke="white" stroke-width="1.2" stroke-linejoin="round"/>
<path d="M47.5991 44.9471L44.801 23.8793C44.6853 23.0079 44.2858 22.199 43.6643 21.5775L36.3934 14.3066" stroke="white" stroke-width="1.2" stroke-linejoin="round"/>
</g>
</g>
<defs>
<clipPath id="clip0_315_458">
<rect width="49" height="51" fill="white"/>
</clipPath>
</defs>
</svg>
