<svg width="45" height="45" viewBox="0 0 45 45" fill="none" xmlns="http://www.w3.org/2000/svg">
<g clip-path="url(#clip0_315_359)">
<g opacity="0.3">
<path fill-rule="evenodd" clip-rule="evenodd" d="M19.7168 3.07582C21.7668 1.27869 24.6722 0.370418 28.438 0.370418C28.4557 0.370418 28.4734 0.371142 28.491 0.372586C31.7983 0.643399 37.0501 3.09935 38.3585 9.63514C38.3669 9.67715 38.3712 9.71989 38.3712 9.76274C38.3712 14.3231 36.9569 16.8322 35.4525 19.501C35.0565 20.2036 34.6543 20.9172 34.2699 21.6823C34.2188 21.8153 34.1657 21.9521 34.1112 22.0926C33.3885 23.956 32.4204 26.4522 32.4204 28.8946C32.4204 28.9228 32.4185 28.9509 32.4149 28.9789L32.3883 29.1823L32.3883 29.1824L32.386 29.1994C32.0273 31.9381 31.5162 35.8401 30.7523 38.984C30.3713 40.552 29.9156 41.9842 29.3585 42.9978C29.0808 43.5031 28.752 43.9531 28.3526 44.2559C27.9402 44.5685 27.4403 44.7295 26.891 44.6115C26.1439 44.4961 25.5613 44.0667 25.1124 43.4943C24.6658 42.9248 24.3276 42.1857 24.0547 41.379C23.5338 39.8394 23.1973 37.8816 22.8726 35.9921C22.8579 35.9065 22.8432 35.8211 22.8285 35.7358C22.4834 33.7309 22.1428 31.8297 21.6149 30.4284C21.0677 28.976 20.4547 28.4043 19.7499 28.4043C19.3891 28.4043 19.0722 28.553 18.7611 28.8943C18.4351 29.2518 18.1377 29.8005 17.8677 30.5314C17.327 31.9951 16.9715 33.9703 16.6114 36.023C16.6009 36.0826 16.5904 36.1423 16.58 36.202C16.2366 38.1605 15.883 40.1775 15.3417 41.7081C15.0627 42.4971 14.7145 43.2161 14.2486 43.7424C13.773 44.2796 13.1541 44.6344 12.3846 44.6224C11.068 44.6978 10.2238 43.6376 9.68255 42.4792C9.11491 41.2643 8.72035 39.6224 8.41376 37.9268C8.15667 36.5049 7.95439 35.0017 7.76889 33.6231C7.73201 33.349 7.69579 33.0798 7.65994 32.8172C7.43994 31.2057 7.23798 29.8807 6.99002 29.0888L6.98839 29.0836L6.98841 29.0836C6.56167 27.6794 5.26169 24.2494 3.51085 21.7969L4.03988 21.4193L3.51085 21.7969C2.87617 20.9079 2.17457 19.2166 1.68975 17.2085C1.20103 15.1843 0.914293 12.764 1.16185 10.3921C1.40944 8.01996 2.19669 5.65525 3.8957 3.80388C5.60363 1.94277 8.17085 0.668152 11.8427 0.372515C13.9382 0.203775 16.9757 0.970566 19.7168 3.07582ZM19.3338 4.43392C16.7127 2.25011 13.783 1.52048 11.947 1.66832L11.947 1.66832C8.53749 1.94284 6.29947 3.10721 4.8535 4.68285C3.3986 6.26823 2.6833 8.33804 2.45483 10.5271C2.22632 12.7164 2.49004 14.9841 2.95344 16.9034C3.42074 18.8389 4.07293 20.3469 4.5689 21.0416C6.43503 23.6556 7.78462 27.2337 8.23145 28.703C8.51865 29.6217 8.73305 31.0669 8.94799 32.6413C8.98455 32.9091 9.02126 33.1818 9.05845 33.4582C9.24402 34.8369 9.44166 36.3053 9.69302 37.6955C9.99639 39.3733 10.368 40.8752 10.8603 41.929C11.3747 43.0298 11.8749 43.3556 12.325 43.3236C12.3465 43.3221 12.3681 43.3216 12.3897 43.3223C12.706 43.3314 12.9876 43.2055 13.2753 42.8806C13.5792 42.5373 13.8596 42.0002 14.1161 41.2747C14.6205 39.8483 14.9583 37.9226 15.3122 35.9052L15.3309 35.7983C15.6849 33.7807 16.0584 31.6777 16.6483 30.0809C16.9436 29.2814 17.3119 28.5542 17.8004 28.0184C18.3038 27.4663 18.9503 27.1043 19.7499 27.1043C21.3658 27.1043 22.2703 28.4806 22.8314 29.97C23.4118 31.5106 23.7705 33.545 24.1097 35.5153C24.1214 35.5833 24.1331 35.6512 24.1447 35.7191C24.4776 37.6545 24.7988 39.522 25.2861 40.9624C25.5376 41.7058 25.8186 42.2882 26.1354 42.6922C26.4447 43.0866 26.7612 43.2795 27.1023 43.3286C27.1205 43.3312 27.1385 43.3346 27.1563 43.3387C27.2721 43.3655 27.3946 43.3509 27.5672 43.2199C27.7598 43.0739 27.9826 42.8021 28.2192 42.3717C28.6907 41.5138 29.1145 40.2188 29.4891 38.6771C30.2347 35.608 30.7382 31.7698 31.0993 29.0136L31.1205 28.8516C31.1316 26.1654 32.1818 23.4658 32.8911 21.6424C32.9529 21.4835 33.0122 21.3312 33.0679 21.1861C33.0755 21.1664 33.084 21.147 33.0935 21.1281C33.5241 20.2685 33.9574 19.4976 34.3714 18.7609C35.8355 16.1557 37.0585 13.9796 37.0711 9.82748C35.8868 4.06212 31.284 1.91633 28.411 1.67043C24.6052 1.67506 21.948 2.65903 20.209 4.39461C19.9713 4.6319 19.5919 4.64894 19.3338 4.43392Z" fill="white"/>
<path fill-rule="evenodd" clip-rule="evenodd" d="M38.786 24.6782L40.1435 27.0608C40.153 27.0776 40.1618 27.0948 40.1699 27.1124C40.6937 28.2585 40.099 29.1471 39.5847 29.4988C39.5622 29.5142 39.5387 29.5282 39.5145 29.5407L35.6647 31.5154C35.6192 31.5387 35.5712 31.5565 35.5216 31.5686C34.9767 31.7011 34.4656 31.6722 34.0283 31.4788C33.5964 31.2877 33.2836 30.9564 33.1009 30.5671L31.646 27.8027L32.7964 27.1973L34.2589 29.9761C34.2645 29.9868 34.2699 29.9977 34.2749 30.0087C34.3341 30.1382 34.4274 30.2338 34.5542 30.2899C34.6728 30.3424 34.8624 30.378 35.145 30.3209L38.8751 28.4076C38.9323 28.3608 39.0028 28.2778 39.0413 28.1693C39.0775 28.0669 39.0982 27.9087 38.998 27.6765L37.6564 25.3218L38.786 24.6782Z" fill="white"/>
<path fill-rule="evenodd" clip-rule="evenodd" d="M44.1883 39.394L39.3072 29.2189L38.1351 29.7811L43.0196 39.9633L43.0273 39.9789C43.0865 40.0943 43.0788 40.1589 43.0449 40.2358C42.9946 40.3496 42.8657 40.5138 42.5976 40.7239L42.1133 41.0778C42.106 41.0832 42.0988 41.0887 42.0917 41.0943C41.6981 41.408 41.476 41.3614 41.3698 41.3204C41.2112 41.2591 41.0665 41.1038 40.9889 40.961L36.317 30.2403L35.1252 30.7597L39.8066 41.5022C39.8121 41.5147 39.818 41.5271 39.8242 41.5393C39.9952 41.8725 40.351 42.3204 40.9013 42.533C41.5063 42.7668 42.2038 42.6625 42.8907 42.1198L43.3731 41.7673C43.3785 41.7634 43.3839 41.7593 43.3892 41.7552C43.7319 41.4881 44.0569 41.1622 44.2341 40.7609C44.4268 40.3245 44.4204 39.8521 44.1883 39.394Z" fill="white"/>
<path fill-rule="evenodd" clip-rule="evenodd" d="M33.2149 19.7534C34.2971 17.9328 35.5687 15.1873 35.975 9.90417L38.4676 10.0959C38.0333 15.7432 36.6518 18.8558 35.3844 20.9964C35.1589 21.4345 34.9191 21.812 34.7143 22.1344C34.6896 22.1733 34.6654 22.2115 34.6417 22.2488C34.41 22.6151 34.2209 22.9267 34.0578 23.2913C33.7452 23.9897 33.4713 25.0124 33.4713 27H30.9713C30.9713 24.772 31.2801 23.378 31.7758 22.2701C32.0169 21.7315 32.2884 21.2926 32.5291 20.9121C32.5536 20.8734 32.5777 20.8354 32.6014 20.798C32.8173 20.4576 33.0012 20.1676 33.1753 19.8254C33.1877 19.801 33.2009 19.777 33.2149 19.7534Z" fill="#316094"/>
<path fill-rule="evenodd" clip-rule="evenodd" d="M31.2212 8.3C26.1402 8.3 22.0212 12.419 22.0212 17.5C22.0212 22.581 26.1402 26.7 31.2212 26.7C36.3022 26.7 40.4212 22.581 40.4212 17.5C40.4212 12.419 36.3022 8.3 31.2212 8.3ZM20.7212 17.5C20.7212 11.701 25.4222 7 31.2212 7C37.0202 7 41.7212 11.701 41.7212 17.5C41.7212 23.299 37.0202 28 31.2212 28C25.4222 28 20.7212 23.299 20.7212 17.5Z" fill="white"/>
</g>
</g>
<defs>
<clipPath id="clip0_315_359">
<rect width="44" height="45" fill="white" transform="translate(0.721191)"/>
</clipPath>
</defs>
</svg>
