<svg width="39" height="53" viewBox="0 0 39 53" fill="none" xmlns="http://www.w3.org/2000/svg">
<g clip-path="url(#clip0_315_449)">
<g opacity="0.3">
<path d="M12.9192 34.8457H26.0814" stroke="white" stroke-width="1.3"/>
<path d="M12.9192 39.5464H26.0814" stroke="white" stroke-width="1.3"/>
<path d="M14.1731 43.3071H25.455" stroke="white" stroke-width="1.3"/>
<path d="M30.469 26.0708V27.3244V30.4582H24.8281V32.0251L22.9478 47.6944L19.5006 51.1416L16.3667 47.6944L14.4864 32.0251V30.4582H7.59192V26.0708M30.469 26.0708H34.2297L37.6769 15.4157C38.5126 11.6551 38.241 3.50708 30.469 1C28.6932 1.94016 24.0133 3.69511 19.5006 3.1937C19.5006 3.1937 15.4266 3.1937 9.15885 1C5.60715 1.52231 -0.932161 5.13668 1.32422 15.4157L4.77145 26.0708H7.59192M30.469 26.0708H7.59192" stroke="white" stroke-width="1.3"/>
</g>
</g>
<defs>
<clipPath id="clip0_315_449">
<rect width="39" height="53" fill="white"/>
</clipPath>
</defs>
</svg>
