<svg width="50" height="51" viewBox="0 0 50 51" fill="none" xmlns="http://www.w3.org/2000/svg">
<g opacity="0.3">
<path d="M48.2598 50V31.625L42.3623 29.4473C37.6444 28.2495 35.6956 30.4 35.311 31.625C34.5418 36.3889 36.3367 47.1129 31.9777 46.8694C27.1059 46.5973 30.0546 29.8556 24.9264 29.8556C19.4136 29.8556 23.1315 46.8694 17.7469 46.8694C13.5161 46.8694 15.4392 37.7501 14.5417 31.625C14.1464 28.9265 10.6956 28.9481 8.90069 29.3111L1.72119 31.625V50H48.2598Z" stroke="white" stroke-width="1.2" stroke-linejoin="round"/>
<path d="M35.3105 31.6252C37.3617 25.364 40.2335 14.584 32.7463 12.8418" stroke="white" stroke-width="1.2" stroke-linejoin="round"/>
<path d="M14.4138 31.0807C11.9779 24.8196 10.2624 14.5966 16.9779 12.8418C17.448 12.8418 18.0036 12.8418 19.1574 12.8418C20.3113 12.8418 21.8497 14.8835 26.7215 14.2029" stroke="white" stroke-width="1.2" stroke-linejoin="round"/>
<path d="M29.7979 16.5167V9.4389M29.7979 9.4389H26.4646V1H32.8749V3.10972M29.7979 9.4389H32.8749V6.85278M32.8749 3.10972V5.21945V6.85278M32.8749 3.10972H48.0031V6.85278H32.8749" stroke="white" stroke-width="1.2" stroke-linejoin="round"/>
</g>
</svg>
