<svg width="38" height="51" viewBox="0 0 38 51" fill="none" xmlns="http://www.w3.org/2000/svg">
<g clip-path="url(#clip0_315_343)">
<g opacity="0.3">
<path d="M22.9762 12.951C17.3177 16.4331 14.2708 10.7747 7.30657 10.7747C5.5655 10.7747 1.99631 12.1675 1.6481 17.7389C1.29989 23.3103 4.40479 32.538 6.00077 36.4554C8.30607 42.1139 5.5657 49.0781 10.3536 49.9487C16.4474 51.0566 12.53 33.8438 19.059 34.2791C24.2822 34.2791 22.1058 50.8192 27.7643 49.9487C32.5523 49.9487 29.9406 41.2433 32.117 36.0201C33.6491 32.3431 38.2107 17.7389 35.1639 12.951" stroke="white" stroke-width="1.3" stroke-linecap="round"/>
<path d="M36.7211 6.33165H17.714C17.3333 6.33165 16.9857 6.11555 16.8172 5.7742L14.7362 1.55745C14.5678 1.21611 14.2201 1 13.8395 1H10.2493M10.2493 1H6.0374M10.2493 1V6.33165M1.62109 6.33165L1.62111 2C1.62111 1.44771 2.06883 1 2.62111 1H6.0374M6.0374 1V6.33165" stroke="white" stroke-width="1.3" stroke-linejoin="round"/>
</g>
</g>
<defs>
<clipPath id="clip0_315_343">
<rect width="37.1" height="51" fill="white" transform="translate(0.621094)"/>
</clipPath>
</defs>
</svg>
