<svg width="46" height="50" viewBox="0 0 46 50" fill="none" xmlns="http://www.w3.org/2000/svg">
<g clip-path="url(#clip0_315_539)">
<g opacity="0.3">
<path d="M8.00397 33.5277C8.30415 42.7076 12.2077 47.9187 14.4498 48.6842C17.3439 48.0254 15.2569 36.2558 18.9944 31.7179C20.1747 30.2849 22.4574 30.2489 23.7087 31.6203C27.8757 36.1869 24.5205 48.4174 28.1822 48.6842C31.6854 48.2249 35.1886 37.3551 34.7682 33.5277C33.8308 30.7968 37.901 27.0615 39.8316 23.8443C40.1055 23.3878 40.1375 22.8335 39.9673 22.329L39.7112 21.5693C39.4369 20.756 38.6743 20.2084 37.816 20.2084H35.1886V17.9217C35.1886 16.8172 34.2931 15.9217 33.1886 15.9217H30.4242V12.9284C30.4242 11.9253 29.6812 11.0774 28.6868 10.9457L25.8001 10.5634C25.9025 8.82779 23.8615 7.96463 22.2415 8.59568C19.3484 9.72258 19.5625 5.709 13.8893 5.35815C1.67023 6.46044 0.950911 16.5341 2.11864 21.4332C2.53896 25.5667 7.86379 29.241 8.00397 33.5277Z" stroke="white" stroke-width="1.3" stroke-linejoin="round"/>
<path d="M30.1439 5.66436L30.4242 1.53078C44.6611 -1.77608 45.7914 11.1758 44.577 18.0651L43.7362 15.1563H39.8127V10.7165H35.0484V6.27674L30.1439 5.66436Z" stroke="white" stroke-width="1.3" stroke-linejoin="round"/>
</g>
</g>
<defs>
<clipPath id="clip0_315_539">
<rect width="45" height="50" fill="white" transform="translate(0.721191)"/>
</clipPath>
</defs>
</svg>
