<svg width="52" height="47" viewBox="0 0 52 47" fill="none" xmlns="http://www.w3.org/2000/svg">
<g clip-path="url(#clip0_315_554)">
<g opacity="0.3">
<path d="M10.377 26.0605C12.1214 32.6356 16.6165 45.8259 20.6421 45.9869C25.5731 46.1842 21.2264 35.3642 26.1641 32.8466C26.3674 32.743 26.591 32.6775 26.8145 32.6316C27.0792 32.5773 27.3769 32.5204 27.4855 32.5138M27.4855 32.5138C26.9313 31.8686 26.2684 31.2553 25.4727 30.6899M27.4855 32.5138C32.1343 37.9256 29.1386 45.5775 32.813 45.9711C33.0155 45.9928 33.2232 46.0151 33.4256 45.9929C36.0131 45.7085 39.4531 37.0947 41.7761 26.0605" stroke="white" stroke-width="1.3" stroke-linejoin="round"/>
<path d="M42.7828 19.217C43.9905 12.7762 46.5265 2.5513 35.7381 1.10211C33.6583 0.900828 28.935 0.860573 26.6807 2.30977" stroke="white" stroke-width="1.3" stroke-linejoin="round"/>
<path d="M8.96794 19.0156C7.35773 13.1115 6.91492 1.30322 18.0254 1.30322C26.0764 1.70578 33.1211 4.1211 35.7377 4.52365" stroke="white" stroke-width="1.3" stroke-linejoin="round"/>
<path d="M1.521 22.2362H20.6423M20.6423 22.2362C20.6423 20.0271 22.4331 18.2107 24.6423 18.2107H27.3099C29.5191 18.2107 31.3099 20.0271 31.3099 22.2362M20.6423 22.2362V22.463C20.6423 24.6722 22.4331 26.463 24.6423 26.463H27.3099C29.5191 26.463 31.3099 24.6722 31.3099 22.463V22.2362M31.3099 22.2362H51.0351" stroke="white" stroke-width="1.3" stroke-linejoin="round"/>
</g>
</g>
<defs>
<clipPath id="clip0_315_554">
<rect width="51" height="47" fill="white" transform="translate(0.721191)"/>
</clipPath>
</defs>
</svg>
