<svg width="24" height="20" viewBox="0 0 24 20" fill="none" xmlns="http://www.w3.org/2000/svg">
<path fill-rule="evenodd" clip-rule="evenodd" d="M14.5575 0.72408C15.316 0.409805 16.129 0.248047 16.95 0.248047C17.771 0.248047 18.584 0.409805 19.3424 0.72408C20.1009 1.03836 20.79 1.49899 21.3705 2.07967C21.951 2.66002 22.4116 3.34906 22.7258 4.10742C23.0401 4.8659 23.2018 5.67886 23.2018 6.49987C23.2018 7.32088 23.0401 8.13385 22.7258 8.89232C22.4115 9.65074 21.9509 10.3398 21.3703 10.9202C21.3703 10.9202 21.3704 10.9202 21.3703 10.9202L12.5303 19.7602C12.2374 20.0531 11.7626 20.0531 11.4697 19.7602L2.62967 10.9202C1.45732 9.74786 0.798706 8.15782 0.798706 6.49987C0.798706 4.84193 1.45732 3.25189 2.62967 2.07954C3.80201 0.907198 5.39205 0.248582 7.05 0.248582C8.70794 0.248582 10.298 0.907198 11.4703 2.07954L12 2.60921L12.5295 2.07967C13.1099 1.49899 13.7991 1.03836 14.5575 0.72408ZM16.95 1.74805C16.326 1.74805 15.7082 1.87098 15.1317 2.10983C14.5553 2.34868 14.0316 2.69876 13.5905 3.14008L12.5303 4.2002C12.2374 4.4931 11.7626 4.4931 11.4697 4.2002L10.4097 3.1402C9.51863 2.24916 8.31012 1.74858 7.05 1.74858C5.78988 1.74858 4.58137 2.24916 3.69033 3.1402C2.79929 4.03124 2.29871 5.23975 2.29871 6.49987C2.29871 7.75999 2.79929 8.9685 3.69033 9.85954L12 18.1692L20.3097 9.85954C20.751 9.41844 21.1012 8.89458 21.34 8.31813C21.5789 7.74169 21.7018 7.12384 21.7018 6.49987C21.7018 5.87591 21.5789 5.25805 21.34 4.68161C21.1012 4.10517 20.7511 3.58143 20.3098 3.14033C19.8687 2.69901 19.3447 2.34868 18.7683 2.10983C18.1918 1.87098 17.574 1.74805 16.95 1.74805Z" fill="#316094"/>
</svg>
