<svg width="12" height="15" viewBox="0 0 12 15" fill="none" xmlns="http://www.w3.org/2000/svg">
<path fill-rule="evenodd" clip-rule="evenodd" d="M0.5 1C0.5 0.723858 0.723858 0.5 1 0.5H11C11.2761 0.5 11.5 0.723858 11.5 1C11.5 1.27614 11.2761 1.5 11 1.5H10.25V2.62461C10.25 3.42333 9.9768 4.19805 9.47578 4.82009L7.60446 7.14339C7.60446 7.14339 7.60446 7.14338 7.60446 7.14339C7.3917 7.40755 7.39648 7.77735 7.61673 8.03641L9.41651 10.1533C9.41652 10.1533 9.41651 10.1533 9.41651 10.1533C9.95456 10.7861 10.25 11.5897 10.25 12.4204V13.5H11C11.2761 13.5 11.5 13.7239 11.5 14C11.5 14.2761 11.2761 14.5 11 14.5H1C0.723858 14.5 0.5 14.2761 0.5 14C0.5 13.7239 0.723858 13.5 1 13.5H1.75V12.4204C1.75 11.5897 2.04543 10.7861 2.58348 10.1533C2.58348 10.1533 2.58347 10.1533 2.58348 10.1533L4.38327 8.03641C4.60352 7.77736 4.60831 7.40756 4.39554 7.14339C4.39554 7.14339 4.39555 7.14339 4.39554 7.14339L2.52422 4.82009C2.0232 4.19805 1.75 3.42333 1.75 2.62461V1.5H1C0.723858 1.5 0.5 1.27614 0.5 1ZM2.75 1.5V2.62461C2.75 3.19512 2.94514 3.74849 3.30302 4.19281C3.30302 4.19281 3.30301 4.19281 3.30302 4.19281L5.17434 6.51611C5.68858 7.15458 5.67612 8.05962 5.14513 8.68415C5.14513 8.68415 5.14514 8.68414 5.14513 8.68415L3.34534 10.8011C2.96104 11.253 2.75 11.8271 2.75 12.4204V13.5H9.25V12.4204C9.25 11.8271 9.03897 11.2531 8.65467 10.8011L6.85487 8.68415C6.3239 8.05963 6.31141 7.15459 6.82566 6.51611L8.69698 4.19281C9.05486 3.74849 9.25 3.19513 9.25 2.62461V1.5H2.75Z" fill="white"/>
</svg>
