<svg width="13" height="9" viewBox="0 0 13 9" fill="none" xmlns="http://www.w3.org/2000/svg">
<path d="M2.4986 4.5164C1.7502 4.4727 1.1588 4.2545 0.7242 3.8618C0.3138 3.4691 0.1086 2.9455 0.1086 2.2909C0.1086 1.5491 0.3621 0.9818 0.8691 0.5891C1.376 0.1964 1.9916 0 2.7159 0C2.74 0 2.7762 0 2.8245 0C3.3315 0.0218 3.7539 0.12 4.0919 0.2945C4.454 0.4691 4.7437 0.7091 4.961 1.0145C5.1783 1.2982 5.3352 1.6364 5.4318 2.0291C5.5283 2.4 5.5766 2.7927 5.5766 3.2073C5.5766 3.7964 5.4559 4.3964 5.2145 5.0073C4.9731 5.6182 4.6351 6.1964 4.2006 6.7418C3.7902 7.2655 3.3073 7.7345 2.7521 8.1491C2.221 8.5418 1.6537 8.8255 1.0501 9L0 7.6909C0.6035 7.32 1.1226 6.8618 1.5571 6.3164C2.0158 5.7491 2.3296 5.1491 2.4986 4.5164ZM9.922 4.5164C9.1736 4.4727 8.5822 4.2545 8.1476 3.8618C7.7372 3.4691 7.532 2.9455 7.532 2.2909C7.532 1.5491 7.7855 0.9818 8.2925 0.5891C8.7994 0.1964 9.415 0 10.1393 0C10.1634 0 10.1996 0 10.2479 0C11.2136 0.0436 11.9136 0.3818 12.3482 1.0145C12.7827 1.6255 13 2.3127 13 3.0764C13 3.12 13 3.1636 13 3.2073C13 3.7964 12.8793 4.3964 12.6379 5.0073C12.3965 5.6182 12.0585 6.1964 11.624 6.7418C11.2136 7.2655 10.7307 7.7345 10.1755 8.1491C9.6444 8.5418 9.0771 8.8255 8.4735 9L7.4234 7.6909C8.0269 7.32 8.546 6.8618 8.9805 6.3164C9.4392 5.7491 9.753 5.1491 9.922 4.5164Z" fill="white"/>
</svg>
