<svg width="24" height="26" viewBox="0 0 24 26" fill="none" xmlns="http://www.w3.org/2000/svg">
<path d="M0.501787 5.51733C0.342186 5.56353 0.176586 5.47053 0.130987 5.31093C-0.213713 4.10103 0.133688 2.80623 1.03819 1.93233C2.31199 0.701727 4.40509 0.680127 5.70319 1.88313C6.66019 2.77023 7.02379 4.09803 6.65149 5.34813C6.39529 6.20913 6.59689 7.11033 7.17229 7.72083C7.69129 7.40823 8.37529 7.47183 8.82199 7.91883L12.0203 11.1177L15.5312 7.60683C15.2012 6.97443 15.0245 6.26853 15.0245 5.53473C15.0245 4.33593 15.4913 3.20883 16.3391 2.36133C17.1866 1.51353 18.3137 1.04673 19.5125 1.04673C20.7113 1.04673 21.8384 1.51353 22.6859 2.36133C23.5337 3.20883 24.0005 4.33593 24.0005 5.53473C24.0005 6.73323 23.5337 7.86033 22.6859 8.70813C21.8111 9.58293 20.6618 10.0206 19.5125 10.0206C18.8 10.0206 18.0878 9.85173 17.4407 9.51543L13.9298 13.0266L23.5952 22.6923C24.1217 23.2188 24.1217 24.075 23.5952 24.6015C23.3318 24.8646 22.9865 24.996 22.6406 24.996C22.2947 24.996 21.9488 24.8646 21.6857 24.6015L12.0203 14.9358L2.32999 24.6264C2.06689 24.8895 1.72159 25.0209 1.37539 25.0209C1.03009 25.0209 0.683887 24.8895 0.420788 24.6264C-0.105713 24.0999 -0.105713 23.2437 0.420788 22.7172L10.1114 13.0266L6.91279 9.82833C6.45349 9.36873 6.39529 8.65743 6.73849 8.13423C6.01519 7.36833 5.75899 6.24483 6.07669 5.17743C6.38299 4.14783 6.08359 3.05433 5.29549 2.32353C4.22689 1.33233 2.50369 1.35183 1.45489 2.36433C0.710287 3.08403 0.423788 4.15023 0.708187 5.14653C0.753489 5.30583 0.661087 5.47203 0.501787 5.51733ZM22.2617 8.28423C22.9961 7.54983 23.4005 6.57333 23.4005 5.53503C23.4005 4.49643 22.9961 3.51993 22.2617 2.78583C21.5276 2.05143 20.5511 1.64703 19.5125 1.64703C18.4739 1.64703 17.4974 2.05143 16.7633 2.78583C16.0289 3.51993 15.6245 4.49643 15.6245 5.53503C15.6245 6.57333 16.0289 7.54983 16.7633 8.28423C18.2792 9.79983 20.7458 9.79983 22.2617 8.28423ZM22.1102 24.1773C22.4024 24.4695 22.8785 24.4698 23.171 24.1773C23.4635 23.8848 23.4635 23.4087 23.171 23.1165L13.5053 13.4508L12.4445 14.5116L22.1102 24.1773ZM0.844988 24.2022C1.13779 24.4947 1.61359 24.4944 1.90549 24.2022L16.9172 9.19053C16.715 9.04683 16.52 8.88933 16.3388 8.70813C16.1591 8.52843 16.0001 8.33343 15.8555 8.13063L0.844988 23.1414C0.552788 23.4339 0.552788 23.9097 0.844988 24.2022ZM7.33699 9.40413L10.5356 12.6024L11.5961 11.5419L8.39779 8.34333C8.11399 8.05953 7.62019 8.06013 7.33699 8.34333C7.04479 8.63553 7.04479 9.11163 7.33699 9.40413Z" fill="#316094"/>
</svg>
