<svg width="24" height="25" viewBox="0 0 24 25" fill="none" xmlns="http://www.w3.org/2000/svg">
<path d="M2.22363 24.9966H21.7764C23.0024 24.9966 24 23.9991 24 22.773V3.22028C24 1.9942 23.0024 0.996643 21.7764 0.996643H2.22363C0.997559 0.996643 0 1.9942 0 3.22028V22.773C0 23.9991 0.997559 24.9966 2.22363 24.9966ZM0.6 3.22028C0.6 2.32496 1.32832 1.59664 2.22363 1.59664H21.7764C22.6717 1.59664 23.4 2.32496 23.4 3.22028V22.773C23.4 23.6683 22.6717 24.3966 21.7764 24.3966H2.22363C1.32832 24.3966 0.6 23.6683 0.6 22.773V3.22028Z" fill="#316094"/>
<path d="M12.6851 16.4657C13.6662 16.5418 14.9869 15.0118 15.2477 14.6966C15.3605 14.5507 15.6042 14.5262 15.758 14.6458L15.8901 14.7484C15.9634 14.8053 16.0141 14.8948 16.0293 14.9941C16.0378 15.0509 16.0413 15.1605 15.9619 15.2632C15.727 15.5866 14.5712 17.2467 14.8888 18.1766C14.9828 18.4514 15.1905 18.6429 15.5116 18.7357C15.6232 18.7595 15.751 18.7754 15.8937 18.7754C16.3437 18.7754 16.9401 18.6175 17.6351 18.0525C18.1202 17.6506 18.5837 17.1704 19.0519 16.5855C19.0993 16.5265 19.15 16.4705 19.2045 16.4179C19.3952 16.2336 19.639 16.0929 19.9097 16.011C20.5882 15.8059 21.1782 15.3848 21.6159 14.7933C21.9188 14.3841 22.0753 13.994 22.1078 13.5656C22.1711 12.7388 21.6716 11.8384 20.8645 11.3252C20.541 11.1194 20.1994 10.9656 19.8493 10.8678C19.2862 10.7107 18.8784 10.3996 18.6027 9.9168C18.2468 9.29278 17.7725 8.82652 17.1936 8.53135C16.2897 8.07022 15.3587 8.13877 14.703 8.71504C14.021 9.31445 13.6489 10.4393 13.537 11.2204C13.4951 11.513 13.3753 11.798 13.1904 12.0442C12.7413 12.6408 12.3927 13.2068 12.1234 13.777C11.6307 14.8453 11.7783 15.5761 11.9998 16.0205C12.1586 16.2889 12.3956 16.4428 12.6851 16.4657ZM12.6672 14.0308C12.9177 13.5005 13.2455 12.9687 13.67 12.4047C13.9155 12.0779 14.0749 11.6978 14.1312 11.3053C14.2551 10.4376 14.6532 9.55762 15.0991 9.16563C15.5629 8.75767 16.2443 8.72046 16.9211 9.06572C17.4007 9.31035 17.7801 9.68594 18.0815 10.2143C18.4396 10.8413 18.9651 11.2441 19.6882 11.4458C19.9853 11.5287 20.265 11.655 20.5425 11.8315C21.158 12.2229 21.5559 12.9172 21.5096 13.5199C21.4858 13.8307 21.3666 14.1219 21.1337 14.4363C20.7733 14.9233 20.2899 15.2693 19.7362 15.4368C19.3744 15.546 19.0463 15.7362 18.7876 15.9864C18.7152 16.0563 18.6476 16.1307 18.5837 16.2101C18.141 16.7633 17.7057 17.2149 17.2545 17.5888C16.6776 18.0578 16.1169 18.2506 15.6581 18.1543C15.5184 18.1135 15.4779 18.0448 15.4565 17.9828C15.296 17.5132 15.9394 16.316 16.4412 15.6237C16.598 15.4221 16.6624 15.1665 16.6226 14.9039C16.5845 14.6541 16.4518 14.4247 16.2584 14.2746L16.1266 14.172L16.1263 14.1719C15.9496 14.0348 15.7366 13.9688 15.526 13.9688C15.24 13.9688 14.9588 14.0904 14.7798 14.3211C14.2275 14.9866 13.2276 15.9019 12.7322 15.8676C12.6669 15.8625 12.5901 15.8402 12.5266 15.7344C12.308 15.2934 12.3569 14.7033 12.6672 14.0308Z" fill="#316094"/>
<path d="M4.76855 22.6337C5.84609 22.6337 6.78184 22.0141 7.23916 21.1119C7.69648 22.0141 8.63223 22.6337 9.70976 22.6337C11.2364 22.6337 12.4783 21.3899 12.4783 19.8611C12.4783 18.363 11.2859 17.1385 9.80146 17.0899V13.7305L11.4365 12.0931C11.4925 12.0369 11.5241 11.9607 11.5241 11.8812V3.65959C11.5241 3.53815 11.4509 3.42873 11.3387 3.38244C11.227 3.33586 11.0976 3.36164 11.0117 3.44763L9.2085 5.25378C9.15254 5.31003 9.1209 5.3862 9.1209 5.46574V11.1178L7.23799 13.0034L5.35537 11.1178V5.46574C5.35537 5.3862 5.32373 5.31003 5.26777 5.25378L3.46455 3.44763C3.37871 3.36164 3.24951 3.33586 3.1376 3.38244C3.02539 3.42873 2.95215 3.53815 2.95215 3.65959V11.8812C2.95215 11.9591 2.98232 12.034 3.03682 12.0899L4.65137 13.7566V17.0909C3.17891 17.1526 2 18.3715 2 19.8611C2 21.3899 3.24189 22.6337 4.76855 22.6337ZM9.6333 11.4539C9.68926 11.3976 9.7209 11.3215 9.7209 11.2419V5.58981L10.9241 4.38469V11.7571L9.28906 13.3945C9.23311 13.4508 9.20146 13.5269 9.20146 13.6065V17.3884C9.20146 17.5541 9.33564 17.6884 9.50146 17.6884H9.70976C10.9054 17.6884 11.8783 18.6631 11.8783 19.8611C11.8783 21.059 10.9054 22.0337 9.70976 22.0337C8.51387 22.0337 7.54092 21.059 7.54092 19.8611L7.53718 13.5533L9.6333 11.4539ZM4.76855 17.6884H4.95137C5.11719 17.6884 5.25137 17.5541 5.25137 17.3884V13.6352C5.25137 13.5572 5.22119 13.4824 5.1667 13.4264L3.55215 11.7597V4.38469L4.75537 5.58981V11.2419C4.75537 11.3215 4.78701 11.3976 4.84297 11.4539L6.93718 13.5512L6.9409 19.8422C6.94048 19.8488 6.93711 19.8544 6.93711 19.8611C6.93711 21.059 5.96416 22.0337 4.76855 22.0337C3.57295 22.0337 2.6 21.059 2.6 19.8611C2.6 18.6631 3.57295 17.6884 4.76855 17.6884Z" fill="#316094"/>
</svg>
