<svg width="24" height="25" viewBox="0 0 24 25" fill="none" xmlns="http://www.w3.org/2000/svg">
<path d="M17.2648 6.54003H18.2193V7.49452C18.2193 7.66019 18.3535 7.79452 18.5193 7.79452H20.1573C20.3231 7.79452 20.4573 7.66019 20.4573 7.49452V6.54003H21.4118C21.5776 6.54003 21.7118 6.4057 21.7118 6.24003V4.60204C21.7118 4.43636 21.5776 4.30204 21.4118 4.30204H20.4573V3.34755C20.4573 3.18187 20.3231 3.04755 20.1573 3.04755H18.5193C18.3535 3.04755 18.2193 3.18187 18.2193 3.34755V4.30204H17.2648C17.099 4.30204 16.9648 4.43636 16.9648 4.60204V6.24003C16.9648 6.4057 17.099 6.54003 17.2648 6.54003ZM17.5648 4.90204H18.5193C18.6852 4.90204 18.8193 4.76771 18.8193 4.60204V3.64755H19.8573V4.60204C19.8573 4.76771 19.9915 4.90204 20.1573 4.90204H21.1118V5.94003H20.1573C19.9915 5.94003 19.8573 6.07435 19.8573 6.24003V7.19452H18.8193V6.24003C18.8193 6.07435 18.6852 5.94003 18.5193 5.94003H17.5648V4.90204Z" fill="#316094"/>
<path d="M3.75597 10.1483L3.78058 10.2025C3.79581 10.2363 3.7923 10.3251 3.78937 10.3964L3.78673 10.4718C3.7545 11.9704 3.8503 13.1929 4.0879 14.3194C4.2379 15.0306 4.98175 17.0046 5.84747 17.4452C5.85117 17.4471 5.85524 17.4467 5.85897 17.4484C5.8626 17.4501 5.86485 17.4534 5.86857 17.4549C6.01446 17.5157 6.1589 17.5459 6.29894 17.5459C6.48644 17.5459 6.66573 17.4917 6.83038 17.3837C8.01515 16.6072 8.10685 13.0078 8.11358 12.5951C8.11358 12.2393 8.41505 11.9272 8.759 11.9272C9.12726 11.9272 9.42696 12.2269 9.42696 12.6C9.4337 13.0078 9.5254 16.6072 10.7102 17.3837C10.8748 17.4917 11.0541 17.5459 11.2416 17.5459C11.3817 17.5459 11.5261 17.5157 11.672 17.4549C11.6855 17.4493 11.6984 17.4429 11.7107 17.4354C12.3502 17.0535 12.6818 16.5019 12.8992 16.0639C13.2347 15.3876 13.4565 14.6299 13.5777 13.7478C13.6847 12.9653 13.7849 10.7644 13.7729 10.4241C13.7655 10.1981 13.82 9.99268 13.9396 9.7961L14.0087 9.68053C14.0802 9.56026 14.1476 9.44674 14.2258 9.3439C14.887 8.47188 15.1961 7.47667 15.1706 6.30113C15.1548 5.57794 14.9995 5.00533 14.6819 4.49937C14.0632 3.5128 12.7765 2.93595 11.4754 3.06515C10.9413 3.11788 10.4532 3.24195 9.9836 3.44439C9.19435 3.78409 8.44552 3.79068 7.69523 3.46358C6.78116 3.06558 5.87325 2.95323 4.99552 3.12901C3.64464 3.40045 2.70626 4.28492 2.48595 5.49503C2.22755 6.91256 2.5047 8.19693 3.30978 9.31256C3.49083 9.56319 3.61944 9.84737 3.75597 10.1483ZM3.07599 5.60255C3.25089 4.64322 4.01261 3.93849 5.11388 3.71729C5.87823 3.56407 6.64493 3.66075 7.45558 4.01378C8.36671 4.41046 9.2711 4.40431 10.2209 3.99547C10.6331 3.81793 11.0629 3.7088 11.5346 3.66222C12.5954 3.55924 13.6812 4.03267 14.1739 4.81812C14.4312 5.22857 14.5574 5.70392 14.5706 6.31432C14.5932 7.34893 14.3239 8.2214 13.7477 8.98106C13.6492 9.11099 13.5698 9.24474 13.4928 9.37408L13.4269 9.48424C13.2473 9.77955 13.162 10.1024 13.1734 10.4444C13.1837 10.7488 13.0861 12.9133 12.9833 13.6664C12.8711 14.483 12.6678 15.1801 12.3619 15.7971C12.0939 16.3368 11.8123 16.6706 11.4227 16.9085C11.2314 16.982 11.1174 16.9333 11.0392 16.882C10.3454 16.4275 10.0501 14.0083 10.027 12.5951C10.027 11.896 9.45802 11.3272 8.759 11.3272C8.08399 11.3272 7.51358 11.9078 7.51358 12.5903C7.49073 14.008 7.19571 16.4269 6.50167 16.8818C6.42186 16.9341 6.30549 16.981 6.10984 16.9041C5.5716 16.6156 4.85874 15.0659 4.67501 14.1955C4.44708 13.1153 4.35538 11.9361 4.38673 10.4849L4.38878 10.4209C4.39435 10.2859 4.40108 10.1181 4.32667 9.95431L4.30235 9.90055C4.15968 9.5859 4.01232 9.2607 3.7961 8.96143C3.08067 7.96959 2.84513 6.87096 3.07599 5.60255Z" fill="#316094"/>
<path d="M4.73689 8.44963C4.79109 8.44963 4.84587 8.43498 4.89509 8.40422C5.03572 8.31662 5.07879 8.13161 4.99119 7.99099C4.6405 7.4279 4.52537 6.80183 4.63933 6.07673C4.72048 5.56096 5.06853 5.18347 5.57068 5.06672C5.73211 5.02922 5.8323 4.86794 5.7948 4.70651C5.75701 4.54523 5.59529 4.44562 5.43474 4.48225C4.69734 4.65378 4.16531 5.22902 4.04636 5.98356C3.91101 6.84504 4.0575 7.62712 4.48201 8.30827C4.53884 8.39953 4.6367 8.44963 4.73689 8.44963Z" fill="#316094"/>
<path d="M12.5028 7.39464C13.0768 7.39464 13.5438 6.92765 13.5438 6.35372C13.5438 5.7798 13.0768 5.31281 12.5028 5.31281C11.9289 5.31281 11.4619 5.7798 11.4619 6.35372C11.4619 6.92765 11.9289 7.39464 12.5028 7.39464ZM12.5028 5.91281C12.746 5.91281 12.9438 6.11056 12.9438 6.35372C12.9438 6.59689 12.746 6.79464 12.5028 6.79464C12.2597 6.79464 12.0619 6.59689 12.0619 6.35372C12.0619 6.11056 12.2597 5.91281 12.5028 5.91281Z" fill="#316094"/>
<path d="M23.7 0.500488H0.3C0.13418 0.500488 0 0.634814 0 0.800488V24.2005C0 24.3662 0.13418 24.5005 0.3 24.5005H23.7C23.8658 24.5005 24 24.3662 24 24.2005V0.800488C24 0.634814 23.8658 0.500488 23.7 0.500488ZM23.4 1.10049V19.738H0.6V1.10049H23.4ZM0.6 23.9005V20.338H23.4V23.9005H0.6Z" fill="#316094"/>
<path d="M20.8847 9.9093H17.7927C17.6269 9.9093 17.4927 10.0436 17.4927 10.2093C17.4927 10.375 17.6269 10.5093 17.7927 10.5093H20.8847C21.0505 10.5093 21.1847 10.375 21.1847 10.2093C21.1847 10.0436 21.0505 9.9093 20.8847 9.9093Z" fill="#316094"/>
<path d="M20.8847 12.255H17.7927C17.6269 12.255 17.4927 12.3893 17.4927 12.555C17.4927 12.7207 17.6269 12.855 17.7927 12.855H20.8847C21.0505 12.855 21.1847 12.7207 21.1847 12.555C21.1847 12.3893 21.0505 12.255 20.8847 12.255Z" fill="#316094"/>
<path d="M20.8847 14.6005H17.7927C17.6269 14.6005 17.4927 14.7348 17.4927 14.9005C17.4927 15.0661 17.6269 15.2005 17.7927 15.2005H20.8847C21.0505 15.2005 21.1847 15.0661 21.1847 14.9005C21.1847 14.7348 21.0505 14.6005 20.8847 14.6005Z" fill="#316094"/>
<path d="M20.8847 16.946H17.7927C17.6269 16.946 17.4927 17.0803 17.4927 17.246C17.4927 17.4117 17.6269 17.546 17.7927 17.546H20.8847C21.0505 17.546 21.1847 17.4117 21.1847 17.246C21.1847 17.0803 21.0505 16.946 20.8847 16.946Z" fill="#316094"/>
</svg>
