<svg width="22" height="24" viewBox="0 0 22 24" fill="none" xmlns="http://www.w3.org/2000/svg">
<path d="M20.6032 8.94463C21.1018 8.65664 21.4586 8.19185 21.6077 7.63579C21.7566 7.07959 21.6801 6.49863 21.3924 6C21.1044 5.50137 20.6395 5.14468 20.0834 4.9957C19.5268 4.84658 18.9464 4.92319 18.4478 5.21104C18.4118 5.23185 18.3785 5.25555 18.3442 5.27811L13.1494 2.27884C13.1517 2.23779 13.1556 2.19714 13.1556 2.15552C13.1556 0.966943 12.1885 0 10.9999 0C9.81136 0 8.84427 0.966943 8.84427 2.15552C8.84427 2.19716 8.84815 2.23781 8.8505 2.27888L3.65561 5.27802C3.6213 5.25549 3.58808 5.23182 3.55208 5.21104C3.05345 4.92319 2.47308 4.84658 1.91644 4.9957C1.36038 5.14468 0.895443 5.50137 0.607455 6C0.319759 6.49863 0.243294 7.07959 0.392123 7.63579C0.541244 8.19185 0.89808 8.65664 1.39671 8.94463C1.43245 8.96525 1.47006 8.98043 1.50658 8.99887V14.9989C1.46984 15.0174 1.43264 15.0346 1.39671 15.0554C0.89808 15.3434 0.541244 15.8082 0.392123 16.3642C0.243294 16.9204 0.319759 17.5014 0.607455 18C0.895443 18.4986 1.36038 18.8553 1.91644 19.0043C2.10218 19.0541 2.29056 19.0787 2.47777 19.0787C2.8513 19.0787 3.21986 18.9807 3.55208 18.789C3.58812 18.7681 3.62137 18.7445 3.65572 18.7219L8.8505 21.7212C8.84815 21.7623 8.84427 21.8029 8.84427 21.8445C8.84427 23.0331 9.81136 24 10.9999 24C12.1885 24 13.1556 23.0331 13.1556 21.8445C13.1556 21.8029 13.1517 21.7623 13.1494 21.7213L18.3442 18.7219C18.3786 18.7445 18.4118 18.7682 18.4478 18.789C18.78 18.9807 19.1486 19.0787 19.5221 19.0787C19.7093 19.0787 19.8977 19.0541 20.0834 19.0043C20.6395 18.8553 21.1044 18.4986 21.3924 18C21.6801 17.5014 21.7566 16.9204 21.6077 16.3642C21.4586 15.8082 21.1018 15.3434 20.6032 15.0554C20.5672 15.0346 20.53 15.0175 20.4933 14.9989V8.9989C20.5298 8.98046 20.5675 8.96525 20.6032 8.94463ZM19.523 5.52158C19.658 5.52158 19.7943 5.53931 19.9282 5.5752C20.3295 5.68271 20.665 5.94009 20.8727 6.3C21.0804 6.65991 21.1358 7.079 21.0283 7.48037C20.9204 7.88174 20.6632 8.21719 20.3032 8.4249C19.9431 8.63247 19.5242 8.6874 19.1231 8.58032C18.7217 8.4728 18.3863 8.21543 18.1785 7.85552C17.7496 7.1127 18.0051 6.15952 18.7478 5.73076C18.9874 5.59233 19.2535 5.52158 19.523 5.52158ZM10.9999 0.6C11.8577 0.6 12.5556 1.29785 12.5556 2.15552C12.5556 3.01318 11.8577 3.71104 10.9999 3.71104C10.1421 3.71104 9.44427 3.01318 9.44427 2.15552C9.44427 1.29785 10.1421 0.6 10.9999 0.6ZM0.971615 7.48037C0.864095 7.079 0.919466 6.65991 1.12718 6.3C1.3349 5.94009 1.67035 5.68271 2.07171 5.5752C2.2056 5.53931 2.34154 5.52158 2.47689 5.52158C2.74642 5.52158 3.01244 5.59233 3.25208 5.73076C3.99476 6.15952 4.25023 7.1127 3.82132 7.85552C3.61361 8.21543 3.27816 8.4728 2.87679 8.58032C2.47572 8.6874 2.05648 8.63247 1.69671 8.4249C1.33665 8.21719 1.07943 7.88174 0.971615 7.48037ZM2.07171 18.4248C1.67035 18.3173 1.3349 18.0599 1.12718 17.7C0.919466 17.3401 0.864095 16.921 0.971615 16.5196C1.07943 16.1183 1.33665 15.7828 1.69671 15.5751C1.93636 15.4367 2.20238 15.3659 2.47191 15.3659C2.60697 15.3659 2.7429 15.3838 2.87679 15.4197C3.27816 15.5272 3.61361 15.7846 3.82132 16.1445C4.25023 16.8873 3.99476 17.8405 3.25208 18.2692C2.89232 18.4771 2.47249 18.5323 2.07171 18.4248ZM10.9999 23.4C10.1421 23.4 9.44427 22.7021 9.44427 21.8445C9.44427 20.9868 10.1421 20.289 10.9999 20.289C11.8577 20.289 12.5556 20.9868 12.5556 21.8445C12.5556 22.7021 11.8577 23.4 10.9999 23.4ZM21.0283 16.5196C21.1358 16.921 21.0804 17.3401 20.8727 17.7C20.665 18.0599 20.3295 18.3173 19.9282 18.4248C19.5277 18.5322 19.1078 18.4772 18.7478 18.2692C18.0051 17.8405 17.7496 16.8873 18.1785 16.1445C18.3863 15.7846 18.7217 15.5272 19.1231 15.4197C19.257 15.3838 19.3929 15.3659 19.528 15.3659C19.7975 15.3659 20.0635 15.4367 20.3032 15.5751C20.6632 15.7828 20.9204 16.1183 21.0283 16.5196ZM19.8933 14.7998C19.589 14.7469 19.2747 14.7579 18.9675 14.84C18.4115 14.9892 17.9468 15.3458 17.6588 15.8445C17.1952 16.6476 17.311 17.6269 17.8723 18.3014L13.0212 21.1024C12.7177 20.2789 11.9274 19.689 10.9999 19.689C10.0725 19.689 9.28219 20.2789 8.97874 21.1023L4.12758 18.3014C4.68888 17.6269 4.80467 16.6476 4.34105 15.8445C4.05306 15.3458 3.58841 14.9892 3.03236 14.84C2.72533 14.7579 2.41093 14.7468 2.10658 14.7996V9.19887C2.22691 9.2198 2.34827 9.23423 2.47074 9.23423C2.65794 9.23423 2.84661 9.20962 3.03236 9.15996C3.58841 9.01084 4.05306 8.65415 4.34105 8.15552C4.80467 7.35238 4.68888 6.37306 4.12747 5.69852L8.97874 2.89777C9.28226 3.72116 10.0725 4.31104 10.9999 4.31104C11.9274 4.31104 12.7176 3.72114 13.0211 2.89774L17.8723 5.69863C17.311 6.37315 17.1952 7.35244 17.6588 8.15552C17.9468 8.65415 18.4115 9.01084 18.9675 9.15996C19.1533 9.20962 19.3416 9.23423 19.5291 9.23423C19.6516 9.23423 19.773 9.2198 19.8933 9.19887V14.7998Z" fill="#316094"/>
<path d="M13.3593 6.60598C12.885 6.65066 12.452 6.75525 12.0348 6.92575C11.3437 7.20847 10.6881 7.21374 10.0309 6.94187C9.21911 6.60627 8.41286 6.5115 7.63356 6.65988C6.42536 6.8903 5.58513 7.64572 5.38649 8.68064C5.19138 9.69943 5.62585 11.0713 6.14294 11.9789C6.33132 12.3091 6.43386 12.6923 6.44001 13.0869C6.45436 14.0109 6.54284 14.8273 6.71159 15.5853C7.03561 16.9819 7.71911 17.5724 8.25583 17.8308C8.39645 17.8863 8.53532 17.914 8.66979 17.914C8.85788 17.914 9.03718 17.8599 9.20095 17.7523C10.2126 17.0875 10.3257 14.4335 10.3353 14.1236C10.3353 13.8558 10.5905 13.6119 10.8706 13.6119H11.0786C11.3587 13.6119 11.6138 13.8558 11.6141 14.1331C11.6235 14.4335 11.7366 17.0875 12.7482 17.7523C13.0295 17.937 13.3567 17.9642 13.7135 17.8218C14.23 17.5724 14.9135 16.9819 15.2384 15.5825C15.4069 14.8242 15.4954 14.0045 15.5094 13.076C15.5106 12.9816 15.5182 12.8844 15.532 12.7876C15.58 12.4503 15.7169 12.1153 15.9269 11.8186C16.4273 11.1134 16.681 10.2656 16.6605 9.36662C16.6462 8.74831 16.5061 8.25847 16.2196 7.82531C15.6659 6.98742 14.5154 6.49655 13.3593 6.60598ZM15.4377 11.4716C15.1722 11.8457 14.9997 12.2714 14.9379 12.7032C14.9206 12.8257 14.9112 12.9483 14.9094 13.0676C14.8963 13.9542 14.8122 14.7342 14.6534 15.4497C14.4392 16.3721 14.0241 17.0056 13.473 17.2727C13.2726 17.3522 13.1566 17.3029 13.0778 17.251C12.51 16.878 12.2464 15.1289 12.2138 14.1236C12.2138 13.5209 11.6938 13.0119 11.0786 13.0119H10.8706C10.2553 13.0119 9.73532 13.5209 9.73561 14.114C9.70309 15.1286 9.44001 16.8773 8.87136 17.2509C8.79255 17.3027 8.67712 17.3522 8.49636 17.2816C7.92507 17.0056 7.50993 16.3721 7.29665 15.4525C7.13757 14.7372 7.05348 13.9604 7.04001 13.0775C7.03239 12.5821 6.90231 12.0996 6.66442 11.6818C6.11716 10.7215 5.83386 9.53376 5.97595 8.79372C6.12653 8.0093 6.78806 7.43186 7.74606 7.24934C7.95114 7.21023 8.15651 7.1906 8.36276 7.1906C8.8321 7.1906 9.30759 7.29196 9.80183 7.49646C10.6125 7.83161 11.417 7.82663 12.2622 7.48122C12.6237 7.33327 13.001 7.24245 13.4156 7.20334C14.342 7.11706 15.2909 7.50803 15.7192 8.15622C15.9407 8.49108 16.0491 8.88 16.0605 9.38039C16.0781 10.1493 15.8628 10.8723 15.4377 11.4716Z" fill="#316094"/>
</svg>
