<svg width="24" height="25" viewBox="0 0 24 25" fill="none" xmlns="http://www.w3.org/2000/svg">
<path d="M21.7648 12.2078C21.9292 11.7316 22.1605 11.2743 22.4629 10.8481C23.5102 9.37186 24.0411 7.59544 23.9979 5.71077C23.9684 4.43108 23.6816 3.42181 23.0949 2.53455C21.9563 0.812042 19.5815 -0.194306 17.1821 0.0314262C16.1831 0.125323 15.2708 0.345489 14.3929 0.704229C12.7933 1.35814 11.2748 1.36941 9.75021 0.739092C8.04352 0.0336235 6.35075 -0.166914 4.72023 0.144366C2.23146 0.618829 0.503967 2.16204 0.0990846 4.27244C-0.310486 6.40628 0.612805 9.30301 1.70968 11.2272C2.14957 11.9993 2.38966 12.8942 2.40387 13.8155C2.43463 15.8066 2.62535 17.5647 2.98717 19.193C3.52169 21.4968 4.60553 23.1017 6.14171 23.8432C6.40919 23.9488 6.66788 24.0015 6.91676 24.0015C7.25719 24.0015 7.57916 23.9028 7.87946 23.7055C9.97257 22.33 10.1869 16.3467 10.1951 16.0832C10.1951 15.2993 10.9067 14.6119 11.7179 14.6119H12.1714C12.9827 14.6119 13.6943 15.2993 13.6944 16.0927C13.7025 16.3467 13.9168 22.33 16.0099 23.7055C16.5297 24.0467 17.114 24.0934 17.768 23.8343C19.2838 23.1018 20.3677 21.497 20.9028 19.1904C20.9148 19.1366 20.9261 19.0826 20.9376 19.0287C22.6645 18.7908 24.0004 17.3054 24.0004 15.5094C24.0004 14.013 23.0727 12.732 21.7648 12.2078ZM17.5274 23.2851C17.0798 23.4616 16.6915 23.4351 16.3397 23.2041C14.8172 22.2039 14.3469 17.7178 14.2943 16.0832C14.2943 14.9604 13.3221 14.0119 12.1714 14.0119H11.7179C10.5673 14.0119 9.59508 14.9604 9.59523 16.0737C9.54249 17.7178 9.07213 22.2039 7.54972 23.2041C7.19801 23.4354 6.80924 23.4619 6.38239 23.294C5.03561 22.6432 4.06368 21.1782 3.57223 19.0602C3.21993 17.4748 3.03405 15.7561 3.00387 13.8061C2.9879 12.7842 2.72072 11.7897 2.23087 10.9302C1.18878 9.10174 0.307532 6.36907 0.688245 4.38553C1.04508 2.52562 2.5943 1.16038 4.83258 0.733819C6.36832 0.441289 7.90201 0.624102 9.52096 1.29368C11.1989 1.98729 12.867 1.9763 14.6199 1.2597C15.4423 0.923516 16.2988 0.71712 17.2383 0.628789C19.4213 0.421954 21.5744 1.32239 22.5945 2.86531C23.116 3.65428 23.3714 4.56277 23.3982 5.72454C23.4381 7.47913 22.9457 9.13074 21.9736 10.501C21.634 10.9795 21.3748 11.4943 21.1914 12.0314C20.9533 11.9807 20.7068 11.9529 20.4538 11.9529C18.4984 11.9529 16.9074 13.5484 16.9074 15.5094C16.9074 17.4242 18.4255 18.9861 20.3174 19.0588C19.8252 21.179 18.8535 22.6435 17.5274 23.2851ZM20.4538 18.4658C18.8292 18.4658 17.5074 17.1395 17.5074 15.5094C17.5074 13.8792 18.8292 12.5529 20.4538 12.5529C22.0785 12.5529 23.4004 13.8792 23.4004 15.5094C23.4004 17.1395 22.0785 18.4658 20.4538 18.4658Z" fill="#316094"/>
<path d="M20.4755 13.718C20.3099 13.718 20.1755 13.8523 20.1755 14.018C20.1755 14.1837 20.3099 14.318 20.4755 14.318C21.0292 14.318 21.4797 14.7667 21.4797 15.3182C21.4797 15.4839 21.614 15.6182 21.7797 15.6182C21.9454 15.6182 22.0797 15.4839 22.0797 15.3182C22.0797 14.4358 21.36 13.718 20.4755 13.718Z" fill="#316094"/>
<path d="M10.7417 2.68292C9.94861 2.68292 9.20769 3.08101 8.75798 3.72838C8.31161 3.52479 7.81765 3.40846 7.29614 3.40846C5.34072 3.40846 3.74976 5.00382 3.74976 6.96481C3.74976 8.92579 5.34072 10.5212 7.29614 10.5212C9.05835 10.5212 10.5203 9.22431 10.793 7.5332C12.1035 7.50548 13.1617 6.42994 13.1617 5.10929C13.1617 3.77145 12.0761 2.68292 10.7417 2.68292ZM7.29614 9.92115C5.67148 9.92115 4.34976 8.59489 4.34976 6.96481C4.34976 5.33473 5.67148 4.00846 7.29614 4.00846C8.9208 4.00846 10.2427 5.33473 10.2427 6.96481C10.2427 8.59489 8.9208 9.92115 7.29614 9.92115ZM10.841 6.93077C10.8295 5.72165 10.2145 4.65475 9.28287 4.02054C9.62411 3.56194 10.1653 3.28292 10.7417 3.28292C11.7453 3.28292 12.5617 4.10221 12.5617 5.10929C12.5617 6.08277 11.7983 6.87858 10.841 6.93077Z" fill="#316094"/>
<path d="M20.938 6.65C20.938 5.31216 19.8524 4.22363 18.5181 4.22363C17.1837 4.22363 16.0981 5.31216 16.0981 6.65C16.0981 7.98784 17.1837 9.07637 18.5181 9.07637C19.8524 9.07637 20.938 7.98784 20.938 6.65ZM16.6981 6.65C16.6981 5.64292 17.5145 4.82363 18.5181 4.82363C19.5216 4.82363 20.338 5.64292 20.338 6.65C20.338 7.65708 19.5216 8.47637 18.5181 8.47637C17.5145 8.47637 16.6981 7.65708 16.6981 6.65Z" fill="#316094"/>
<path d="M7.31782 5.17358C7.15215 5.17358 7.01782 5.30791 7.01782 5.47358C7.01782 5.63926 7.15215 5.77358 7.31782 5.77358C7.87139 5.77358 8.32183 6.22227 8.32183 6.77363C8.32183 6.93931 8.45615 7.07363 8.62183 7.07363C8.7875 7.07363 8.92183 6.93931 8.92183 6.77363C8.92183 5.89136 8.20229 5.17358 7.31782 5.17358Z" fill="#316094"/>
</svg>
