<svg width="26" height="25" viewBox="0 0 26 25" fill="none" xmlns="http://www.w3.org/2000/svg">
<path d="M21.1499 12.2228C21.1355 11.8019 21.2366 11.419 21.4596 11.0523L21.575 10.8597C21.6983 10.652 21.8149 10.4557 21.9529 10.2735C23.0366 8.84336 23.5432 7.20947 23.5013 5.27851C23.4755 4.09873 23.2244 3.16782 22.7105 2.34882C21.7098 0.752437 19.6186 -0.179497 17.508 0.0289503C16.6303 0.115962 15.829 0.319722 15.0588 0.651802C13.6757 1.24741 12.3632 1.25839 11.0451 0.684028C9.5457 0.0305616 8.0583 -0.154009 6.62422 0.133687C4.43604 0.573286 2.91758 2.00122 2.56221 3.95327C2.13799 6.28354 2.59238 8.3935 3.91279 10.2244C4.22979 10.6639 4.46123 11.1747 4.68506 11.6687L4.72578 11.7585C4.77148 11.8595 4.76504 12.0207 4.75889 12.1768L4.75449 12.3013C4.74054 12.9418 4.74182 13.5391 4.75572 14.1129C4.72252 14.0587 4.68345 14.0089 4.65283 13.9529L4.27109 13.2543C4.16563 13.0618 3.84981 13.0618 3.74434 13.2543L3.3626 13.9529C3.00928 14.5995 2.48105 15.1283 1.83447 15.4822L1.13633 15.8644C1.04023 15.9169 0.980469 16.0179 0.980469 16.1274C0.980469 16.2372 1.04023 16.3379 1.13633 16.3907L1.83447 16.7726C2.48076 17.1265 3.00928 17.6553 3.3626 18.3019L3.74434 19.0004C3.79707 19.0967 3.89814 19.1566 4.00772 19.1566C4.11729 19.1566 4.21836 19.0967 4.27109 19.0004L4.65254 18.302C4.77061 18.0862 4.91453 17.8893 5.06934 17.7019C5.12532 18.0511 5.18613 18.3973 5.25693 18.7334C5.55107 20.1288 6.8249 23.2019 8.11045 23.8565C8.11506 23.8589 8.11999 23.8597 8.12468 23.8618C8.12719 23.8629 8.12871 23.8651 8.13125 23.8662C8.35039 23.9573 8.5666 24.0029 8.77578 24.0029C9.05234 24.0029 9.3169 23.9232 9.55889 23.7646C11.4644 22.5158 11.6149 16.553 11.6258 15.8724C11.6258 15.164 12.2293 14.5425 12.9172 14.5425C13.6499 14.5425 14.2461 15.1391 14.2461 15.8772C14.2464 15.8935 14.2754 17.5275 14.5294 19.2868C14.8798 21.7122 15.4801 23.2186 16.313 23.7646C16.555 23.9232 16.8195 24.0029 17.0961 24.0029C17.3053 24.0027 17.5215 23.9573 17.7406 23.8662C17.7538 23.8606 17.7667 23.8542 17.779 23.8467C18.81 23.2311 19.3476 22.3344 19.7006 21.6222C20.2558 20.5028 20.6226 19.2478 20.8227 17.7853C21.0017 16.4758 21.1695 12.7929 21.1499 12.2228ZM4.12607 18.0142L4.00772 18.231L3.88936 18.0142C3.48066 17.2666 2.86982 16.6554 2.12275 16.2462L1.90537 16.1274L2.12275 16.0083C2.86982 15.5994 3.48096 14.9881 3.88936 14.2406L4.00772 14.0238L4.12637 14.2407C4.53506 14.9884 5.14619 15.5997 5.89297 16.0083L6.11035 16.1274L5.89297 16.2462C5.14619 16.6549 4.53535 17.2662 4.12607 18.0142ZM20.2279 17.7042C20.0372 19.1011 19.6889 20.2955 19.1633 21.3556C18.8486 21.9897 18.3746 22.7847 17.4904 23.3203C17.1679 23.4492 16.898 23.4304 16.642 23.2627C15.2524 22.3523 14.8745 17.6159 14.8461 15.8724C14.8461 14.8082 13.9807 13.9425 12.9172 13.9425C11.8918 13.9425 11.0258 14.8262 11.0258 15.8676C10.9977 17.6156 10.6203 22.3517 9.22988 23.2627C8.97187 23.432 8.69853 23.4481 8.37313 23.3156C7.31846 22.765 6.12064 19.921 5.84404 18.6098C5.74619 18.1457 5.66411 17.6638 5.59597 17.1769C5.77915 17.027 5.97127 16.8875 6.18125 16.7727L6.8794 16.3907C6.97549 16.3379 7.03525 16.2372 7.03525 16.1274C7.03525 16.0179 6.97549 15.9169 6.8794 15.8644L6.18125 15.482C5.88815 15.3217 5.62326 15.121 5.38394 14.8939C5.344 14.0916 5.33413 13.2476 5.35449 12.3142L5.3583 12.2008C5.3668 11.9854 5.37676 11.7411 5.27188 11.5105L5.23145 11.4212C4.99561 10.9003 4.75156 10.3617 4.39971 9.87343C3.16104 8.15605 2.75322 6.25468 3.15225 4.06079C3.46221 2.35952 4.8043 1.11132 6.74258 0.721968C8.07324 0.45478 9.40186 0.622212 10.8055 1.23408C12.2835 1.87802 13.7524 1.86792 15.2961 1.20288C16.0089 0.895552 16.7519 0.70688 17.5672 0.626021C19.4551 0.43896 21.3189 1.25942 22.2025 2.66757C22.6561 3.39091 22.8781 4.2247 22.9013 5.29155C22.9402 7.08203 22.4735 8.59301 21.4748 9.91108C21.3163 10.1203 21.1854 10.3404 21.0591 10.5533L20.9469 10.7408C20.6653 11.204 20.532 11.7096 20.5505 12.2434C20.5681 12.7599 20.4022 16.4291 20.2279 17.7042Z" fill="#316094"/>
<path d="M7.72414 2.80345C7.69133 2.641 7.53283 2.53568 7.37082 2.56849C6.10139 2.82366 5.21955 3.65599 5.01242 4.79461C4.77043 6.12469 5.03029 7.32953 5.78469 8.37572C5.84358 8.45702 5.93527 8.50023 6.02844 8.50023C6.08908 8.50023 6.15061 8.48177 6.20363 8.44354C6.33811 8.34657 6.36828 8.15907 6.2716 8.02474C5.60686 7.10321 5.38801 6.08177 5.60246 4.90213C5.76418 4.01414 6.46965 3.3617 7.48918 3.15677C7.65149 3.1241 7.75666 2.9659 7.72414 2.80345Z" fill="#316094"/>
<path d="M24.8438 21.5294L24.3511 21.2598C23.9096 21.0181 23.5486 20.6571 23.3075 20.2156L23.038 19.7225C22.9325 19.53 22.6167 19.53 22.5112 19.7225L22.2417 20.2156C22.0006 20.6572 21.6396 21.0183 21.1984 21.2597L20.7057 21.5294C20.6096 21.5821 20.5498 21.683 20.5498 21.7926C20.5498 21.9022 20.6096 22.0031 20.7057 22.0558L21.1984 22.3255C21.6396 22.5668 22.0006 22.9279 22.2417 23.3697L22.5112 23.8627C22.564 23.959 22.665 24.0189 22.7746 24.0189C22.8842 24.0189 22.9853 23.959 23.038 23.8627L23.3075 23.3697C23.5486 22.928 23.9096 22.5669 24.3511 22.3255L24.8438 22.0558C24.9399 22.0031 24.9997 21.9022 24.9997 21.7926C24.9997 21.683 24.9399 21.5821 24.8438 21.5294ZM24.0628 21.799C23.5205 22.0958 23.0772 22.5394 22.7808 23.082L22.7746 23.0934L22.7685 23.082C22.472 22.5392 22.0287 22.0957 21.4867 21.799L21.4747 21.7926L21.4867 21.786C22.0287 21.4894 22.472 21.0458 22.7685 20.5032L22.7746 20.4918L22.7808 20.5032C23.0772 21.0457 23.5205 21.4892 24.0628 21.7862L24.0748 21.7926L24.0628 21.799Z" fill="#316094"/>
<path d="M12.3078 9.53411L11.7017 9.20232C11.1479 8.89939 10.6947 8.44587 10.3915 7.89114L10.0602 7.28499C9.95469 7.0925 9.63887 7.0925 9.5334 7.28499L9.20234 7.89099C8.89883 8.44587 8.44561 8.89939 7.8916 9.20247L7.28574 9.53411C7.18965 9.58669 7.12988 9.68762 7.12988 9.79719C7.12988 9.90691 7.18965 10.0077 7.28574 10.0604L7.8916 10.3919C8.4459 10.6951 8.89883 11.1485 9.20205 11.7031L9.5334 12.3094C9.58613 12.4056 9.68721 12.4656 9.79678 12.4656C9.90635 12.4656 10.0074 12.4056 10.0602 12.3094L10.3912 11.7032C10.6947 11.1485 11.1477 10.6951 11.702 10.3919L12.3078 10.0604C12.4039 10.0077 12.4637 9.90691 12.4637 9.79719C12.4637 9.68762 12.4039 9.58669 12.3078 9.53411ZM11.4137 9.86545C10.7589 10.2239 10.2233 10.7599 9.86475 11.4154L9.79678 11.5399L9.72852 11.4153C9.37022 10.7599 8.83467 10.2239 8.17988 9.86545L8.05479 9.79719L8.17959 9.72878C8.83438 9.37048 9.37022 8.83464 9.72881 8.17883L9.79678 8.05432L9.86504 8.17898C10.2233 8.83464 10.7592 9.37048 11.4137 9.72864L11.5388 9.79719L11.4137 9.86545Z" fill="#316094"/>
<path d="M14.1996 6.82954H13.5059V6.13594C13.5059 5.97026 13.3717 5.83594 13.2059 5.83594C13.04 5.83594 12.9059 5.97026 12.9059 6.13594V6.82954H12.2121C12.0463 6.82954 11.9121 6.96387 11.9121 7.12954C11.9121 7.29522 12.0463 7.42954 12.2121 7.42954H12.9059V8.12314C12.9059 8.28882 13.04 8.42314 13.2059 8.42314C13.3717 8.42314 13.5059 8.28882 13.5059 8.12314V7.42954H14.1996C14.3654 7.42954 14.4996 7.29522 14.4996 7.12954C14.4996 6.96387 14.3654 6.82954 14.1996 6.82954Z" fill="#316094"/>
<path d="M24.7621 13.728H24.0684V13.0344C24.0684 12.8687 23.9342 12.7344 23.7684 12.7344C23.6025 12.7344 23.4684 12.8687 23.4684 13.0344V13.728H22.7746C22.6088 13.728 22.4746 13.8623 22.4746 14.028C22.4746 14.1937 22.6088 14.328 22.7746 14.328H23.4684V15.0216C23.4684 15.1873 23.6025 15.3216 23.7684 15.3216C23.9342 15.3216 24.0684 15.1873 24.0684 15.0216V14.328H24.7621C24.9279 14.328 25.0621 14.1937 25.0621 14.028C25.0621 13.8623 24.9279 13.728 24.7621 13.728Z" fill="#316094"/>
<path d="M4.31289 21.2827H3.61914V20.5891C3.61914 20.4234 3.48496 20.2891 3.31914 20.2891C3.15332 20.2891 3.01914 20.4234 3.01914 20.5891V21.2827H2.32539C2.15957 21.2827 2.02539 21.417 2.02539 21.5827C2.02539 21.7483 2.15957 21.8827 2.32539 21.8827H3.01914V22.5763C3.01914 22.7419 3.15332 22.8763 3.31914 22.8763C3.48496 22.8763 3.61914 22.7419 3.61914 22.5763V21.8827H4.31289C4.47871 21.8827 4.61289 21.7483 4.61289 21.5827C4.61289 21.417 4.47871 21.2827 4.31289 21.2827Z" fill="#316094"/>
</svg>
