<svg width="24" height="25" viewBox="0 0 24 25" fill="none" xmlns="http://www.w3.org/2000/svg">
<path d="M16.9091 0.000488281C13.7573 0.000488281 11.0804 2.06804 10.1602 4.91762C9.4957 4.93492 8.84754 4.81693 8.18512 4.54297C6.75558 3.95176 5.33746 3.78418 3.96959 4.04492C1.87706 4.44395 0.424231 5.74326 0.0832158 7.5207C-0.260144 9.30957 0.511976 11.7348 1.42955 13.3443C1.79152 13.9795 1.98912 14.7163 2.0007 15.4745C2.02648 17.1359 2.18556 18.6025 2.48761 19.961C2.93615 21.8943 3.84772 23.242 5.14396 23.8672C5.37291 23.9577 5.59469 24.0028 5.80797 24.0028C6.10079 24.0028 6.3778 23.9179 6.63634 23.7479C8.40031 22.5887 8.57975 17.5833 8.58663 17.3612C8.58663 16.7357 9.15543 16.187 9.80392 16.187H10.1814C10.8299 16.187 11.3987 16.7357 11.3988 17.3709C11.4056 17.5833 11.585 22.5887 13.349 23.7479C13.7961 24.0415 14.2981 24.0816 14.8617 23.8584C16.1376 23.242 17.0492 21.8943 17.4982 19.9584C17.8008 18.597 17.96 17.1242 17.9848 15.4558C17.9874 15.2706 18.0022 15.0837 18.0284 14.9C18.0824 14.5234 18.1169 14.3428 18.24 14.0555C21.5157 13.4306 24.0002 10.5465 24.0002 7.0915C24.0002 3.18154 20.8191 0.000488281 16.9091 0.000488281ZM15.2382 9.14814C15.24 9.14814 15.2417 9.14814 15.2435 9.14814L16.8662 9.12031C17.0279 9.11738 17.1583 8.98701 17.1611 8.82559L17.1841 7.49229L18.5187 7.46826C18.6801 7.46533 18.8104 7.33525 18.8133 7.17354L18.8404 5.67061L19.9182 4.59263C20.0986 4.76683 20.2599 4.954 20.3933 5.15557C20.8228 5.80537 21.033 6.55449 21.0551 7.51338C21.0883 8.96592 20.6807 10.3329 19.8763 11.4667C19.4997 11.9976 19.2314 12.5968 19.0888 13.2049C18.4071 13.4487 17.6736 13.5825 16.9091 13.5825C13.3299 13.5825 10.418 10.6707 10.418 7.0915C10.418 6.07776 10.652 5.11779 11.0682 4.26212C11.9699 4.35653 12.8657 4.2186 13.8034 3.83516C14.4844 3.55684 15.194 3.38574 15.9728 3.31279C17.2361 3.19308 18.5195 3.54501 19.454 4.20845L18.3305 5.33193C18.2756 5.38672 18.2441 5.46084 18.2426 5.53877L18.2186 6.87354L16.8837 6.89756C16.7221 6.90049 16.5919 7.03086 16.5891 7.19229L16.5661 8.52529L15.2332 8.54815C15.0675 8.55107 14.9356 8.6876 14.9383 8.85342C14.9411 9.01719 15.075 9.14814 15.2382 9.14814ZM17.4346 14.815C17.4047 15.0236 17.3879 15.2363 17.3848 15.447C17.3606 17.0738 17.2061 18.507 16.9131 19.8257C16.507 21.5759 15.7075 22.7835 14.6211 23.3094C14.2647 23.4497 13.9563 23.4292 13.6786 23.2467C12.4294 22.4261 12.0423 18.713 11.9987 17.3612C11.9987 16.3994 11.1665 15.587 10.1814 15.587H9.80392C8.81881 15.587 7.98663 16.3994 7.98678 17.3516C7.94342 18.7127 7.557 22.4249 6.3069 23.2464C6.02887 23.4292 5.72052 23.45 5.38463 23.3182C4.27794 22.7835 3.47828 21.5759 3.07267 19.8283C2.78014 18.5126 2.62575 17.0853 2.6007 15.4651C2.58751 14.6062 2.36281 13.77 1.95075 13.0473C0.913782 11.2282 0.400062 9.05264 0.672376 7.63379C0.965345 6.10684 2.24005 4.98564 4.08195 4.63438C5.35094 4.39238 6.61759 4.54414 7.95602 5.09727C8.62763 5.37511 9.31237 5.51676 9.99481 5.52376C9.8804 6.02847 9.81798 6.55268 9.81798 7.0915C9.81798 11.0015 12.999 14.1825 16.9091 14.1825C17.132 14.1825 17.3521 14.1709 17.5697 14.1507C17.5054 14.3638 17.4709 14.5604 17.4346 14.815ZM19.8039 12.8989C19.9389 12.5201 20.1261 12.1514 20.3656 11.8139C21.2454 10.574 21.6911 9.08223 21.6548 7.4999C21.6302 6.42295 21.3883 5.57275 20.8937 4.82451C20.6843 4.50787 20.423 4.22202 20.1252 3.96736C20.1242 3.96628 20.1239 3.96483 20.1229 3.96377C20.1204 3.96135 20.1172 3.96066 20.1147 3.95833C19.0477 3.05152 17.4885 2.56743 15.9166 2.71514C15.0782 2.79395 14.3127 2.97881 13.5763 3.27969C12.8227 3.58767 12.1021 3.72077 11.3861 3.68604C12.5311 1.83605 14.5782 0.600488 16.9091 0.600488C20.4883 0.600488 23.4002 3.5123 23.4002 7.0915C23.4002 9.63085 21.9337 11.8329 19.8039 12.8989Z" fill="#316094"/>
</svg>
