<svg width="24" height="25" viewBox="0 0 24 25" fill="none" xmlns="http://www.w3.org/2000/svg">
<path d="M23.7 7.90769H22.3561C22.5074 7.24163 22.5766 6.53737 22.5604 5.78704C22.5343 4.60769 22.2829 3.67737 21.769 2.85926C20.7674 1.26419 18.6782 0.331228 16.5639 0.54114C15.6867 0.627859 14.8852 0.831473 14.1132 1.16355C12.7301 1.75887 11.4161 1.7697 10.0975 1.19563C8.59746 0.543045 7.11006 0.358474 5.67422 0.64573C3.48516 1.08518 1.96582 2.51223 1.61045 4.46297C1.38975 5.67372 1.40891 6.82426 1.66166 7.90769H0.3C0.13418 7.90769 0 8.04202 0 8.20769C0 8.37337 0.13418 8.50769 0.3 8.50769H1.82683C2.0779 9.28706 2.45563 10.0292 2.96162 10.73C3.2792 11.1698 3.51094 11.6811 3.73535 12.1755L3.7749 12.2631C3.8209 12.3642 3.81445 12.5256 3.80801 12.6818L3.80361 12.8053C3.74971 15.31 3.90938 17.3524 4.30664 19.233C4.60078 20.6274 5.8752 23.6983 7.16162 24.3526C7.16516 24.3544 7.16907 24.354 7.17264 24.3557C7.17632 24.3574 7.17863 24.3607 7.18242 24.3623C7.40156 24.4534 7.61777 24.4988 7.82695 24.4988C8.1041 24.4988 8.36895 24.419 8.61123 24.26C10.5173 23.0105 10.6676 17.0537 10.6784 16.3738C10.6784 15.6475 11.265 15.0572 11.9895 15.0469C12.7136 15.0572 13.3002 15.6475 13.3002 16.3786C13.3005 16.3949 13.3295 18.0274 13.5838 19.7851C13.9342 22.2084 14.5345 23.7139 15.3674 24.26C15.61 24.419 15.8745 24.4988 16.152 24.4988C16.3608 24.4988 16.5771 24.4534 16.7962 24.3623C16.8097 24.3567 16.8223 24.3503 16.8349 24.3429C17.8658 23.7279 18.4037 22.8317 18.7573 22.1198C19.3128 21.0008 19.6799 19.7466 19.88 18.2855C20.059 16.9779 20.2271 13.2969 20.2075 12.7267C20.1932 12.3065 20.2945 11.924 20.5175 11.5574L20.632 11.3659C20.7557 11.1579 20.8726 10.9616 21.0111 10.7789C21.545 10.0751 21.9374 9.3213 22.1947 8.50769H23.7C23.8658 8.50769 24 8.37337 24 8.20769C24 8.04202 23.8658 7.90769 23.7 7.90769ZM2.20049 4.57049C2.51045 2.87054 3.85313 1.62337 5.79229 1.23401C7.12383 0.966531 8.45332 1.1344 9.85781 1.74583C11.3373 2.38948 12.8065 2.37923 14.3505 1.71463C15.0647 1.4073 15.808 1.21878 16.623 1.13821C18.5133 0.951443 20.3777 1.77132 21.261 3.1783C21.7148 3.90076 21.9369 4.73396 21.9604 5.80022C21.9767 6.55053 21.8985 7.24917 21.7348 7.90769H14.8954V6.39275C14.8954 5.80227 14.4149 5.32181 13.8246 5.32181H10.1918C9.60117 5.32181 9.1207 5.80227 9.1207 6.39275V7.90769H2.27173C2.00691 6.87013 1.98312 5.76391 2.20049 4.57049ZM14.2954 6.39275V10.0228C14.2954 10.2824 14.0842 10.4936 13.8246 10.4936H10.1918C9.93193 10.4936 9.7207 10.2824 9.7207 10.0228V6.39275C9.7207 6.13304 9.93193 5.9218 10.1918 5.9218H13.8246C14.0842 5.9218 14.2954 6.13304 14.2954 6.39275ZM20.533 10.4162C20.3739 10.6259 20.243 10.8462 20.1164 11.0593L20.0048 11.2455C19.7229 11.7088 19.5896 12.2142 19.6081 12.7474C19.6257 13.2639 19.4599 16.9308 19.2853 18.2041C19.0945 19.5998 18.7459 20.7933 18.22 21.8529C17.9051 22.4868 17.4308 23.2814 16.5463 23.8162C16.224 23.9452 15.9533 23.9268 15.6964 23.7583C14.3068 22.8475 13.9286 18.1153 13.9002 16.3738C13.9002 15.3272 13.0616 14.4744 12.0208 14.4475C12.0164 14.4473 12.0127 14.445 12.0082 14.445C12.0019 14.445 11.9958 14.4459 11.9895 14.446C11.9831 14.4459 11.977 14.445 11.9707 14.445C11.9663 14.445 11.9626 14.4473 11.9581 14.4475C10.9173 14.4744 10.0784 15.3271 10.0784 16.3689C10.0503 18.1152 9.67295 22.8466 8.28223 23.7583C8.02304 23.928 7.7497 23.9443 7.4237 23.8117C6.36843 23.261 5.17006 20.4193 4.89375 19.1091C4.50615 17.2746 4.35059 15.2757 4.40361 12.8183L4.40742 12.7064C4.41621 12.4905 4.42647 12.2457 4.321 12.0147L4.28174 11.9278C4.04531 11.4063 3.80068 10.8673 3.44795 10.3787C3.01511 9.77927 2.68605 9.15671 2.45506 8.50769H9.1207V10.0228C9.1207 10.6133 9.60117 11.0936 10.1918 11.0936H13.8246C14.4149 11.0936 14.8954 10.6133 14.8954 10.0228V8.50769H21.5562C21.3197 9.18738 20.9833 9.82265 20.533 10.4162Z" fill="#316094"/>
</svg>
