<svg width="24" height="25" viewBox="0 0 24 25" fill="none" xmlns="http://www.w3.org/2000/svg">
<path d="M0.3 24.0051H4.96641C5.13208 24.0051 5.26641 23.871 5.26641 23.7051C5.26641 23.5393 5.13208 23.4051 4.96641 23.4051H1.00886L5.95078 18.4633C6.06797 18.3462 6.06797 18.1563 5.95078 18.0391C5.83359 17.9219 5.64375 17.9219 5.52656 18.0391L0.6 22.9656V19.0387C0.6 18.8729 0.465674 18.7387 0.3 18.7387C0.134326 18.7387 0 18.8729 0 19.0387V23.7051C0 23.871 0.134326 24.0051 0.3 24.0051Z" fill="#316094"/>
<path d="M0.3 5.27153C0.465674 5.27153 0.6 5.13735 0.6 4.97153V1.02567L5.52656 5.9521C5.58516 6.01069 5.66191 6.03999 5.73867 6.03999C5.81543 6.03999 5.89219 6.01069 5.95078 5.9521C6.06797 5.83491 6.06797 5.64507 5.95078 5.52788L1.0279 0.605127H4.96641C5.13208 0.605127 5.26641 0.470947 5.26641 0.305127C5.26641 0.139307 5.13208 0.00512695 4.96641 0.00512695H0.3C0.134326 0.00512695 0 0.139307 0 0.305127V4.97153C0 5.13735 0.134326 5.27153 0.3 5.27153Z" fill="#316094"/>
<path d="M24.0001 0.305127C24.0001 0.139307 23.8658 0.00512695 23.7001 0.00512695H19.0337C18.868 0.00512695 18.7337 0.139307 18.7337 0.305127C18.7337 0.470947 18.868 0.605127 19.0337 0.605127H22.9722L18.0493 5.52788C17.9321 5.64507 17.9321 5.83491 18.0493 5.9521C18.1079 6.01069 18.1847 6.03999 18.2614 6.03999C18.3382 6.03999 18.4149 6.01069 18.4735 5.9521L23.4001 1.02567V4.97153C23.4001 5.13735 23.5344 5.27153 23.7001 5.27153C23.8658 5.27153 24.0001 5.13735 24.0001 4.97153V0.305127Z" fill="#316094"/>
<path d="M24.0001 23.7051V19.0387C24.0001 18.8729 23.8658 18.7387 23.7001 18.7387C23.5344 18.7387 23.4001 18.8729 23.4001 19.0387V22.9656L18.4735 18.0391C18.3563 17.9219 18.1665 17.9219 18.0493 18.0391C17.9321 18.1563 17.9321 18.3462 18.0493 18.4633L22.9912 23.4051H19.0337C18.868 23.4051 18.7337 23.5393 18.7337 23.7051C18.7337 23.871 18.868 24.0051 19.0337 24.0051H23.7001C23.8658 24.0051 24.0001 23.871 24.0001 23.7051Z" fill="#316094"/>
<path d="M14.3595 6.911C13.8854 6.95553 13.4521 7.06012 13.0349 7.23092C12.3435 7.51364 11.6877 7.51862 11.031 7.24733C10.2192 6.91159 9.41195 6.81637 8.63353 6.9652C7.42518 7.19547 6.58524 7.95075 6.3866 8.98581C6.19119 10.0042 6.62581 11.3761 7.1432 12.284C7.33114 12.6139 7.43382 12.9971 7.43997 13.3921C7.45433 14.3155 7.54281 15.1317 7.71141 15.8905C8.03543 17.2871 8.71893 17.8777 9.25565 18.1358C9.39627 18.1915 9.53514 18.2193 9.66976 18.2193C9.8577 18.2193 10.037 18.1651 10.2008 18.0576C11.2122 17.3928 11.3256 14.7388 11.3353 14.4289C11.3353 14.1611 11.5905 13.9171 11.8705 13.9171H12.0784C12.3586 13.9171 12.6138 14.1611 12.6139 14.4385C12.6235 14.7388 12.7367 17.3925 13.7482 18.0576C14.0291 18.2422 14.3559 18.2697 14.7138 18.127C15.2302 17.8774 15.9137 17.2871 16.2381 15.8879C16.4067 15.1294 16.4955 14.3096 16.5093 13.3815C16.5106 13.2854 16.5183 13.1881 16.532 13.0926C16.5803 12.7551 16.7168 12.42 16.927 12.1238C17.4274 11.4183 17.681 10.5705 17.6603 9.67165C17.6461 9.05348 17.5062 8.56364 17.2199 8.13034C16.666 7.29274 15.5171 6.80436 14.3595 6.911ZM16.4378 11.7766C16.1725 12.1505 15.9998 12.5761 15.9381 13.0074C15.9208 13.1281 15.911 13.2508 15.9093 13.3727C15.8961 14.2592 15.8121 15.0394 15.6531 15.7551C15.4392 16.6774 15.0241 17.3108 14.4731 17.578C14.2726 17.6571 14.1566 17.6079 14.0778 17.556C13.5101 17.1831 13.2465 15.434 13.2138 14.4289C13.2138 13.8262 12.6938 13.3171 12.0784 13.3171H11.8705C11.2552 13.3171 10.7353 13.8262 10.7354 14.4192C10.7026 15.434 10.4389 17.1834 9.87117 17.556C9.79251 17.6079 9.67664 17.6568 9.49632 17.5868C8.92503 17.3108 8.5099 16.6774 8.29647 15.7578C8.13753 15.0418 8.0536 14.2651 8.03997 13.3827C8.03206 12.887 7.90228 12.4045 7.66439 11.987C7.11698 11.0263 6.83382 9.83893 6.97576 9.09889C7.12635 8.31432 7.78802 7.73717 8.74588 7.55465C8.95111 7.5154 9.15648 7.49577 9.36287 7.49577C9.83221 7.49577 10.3074 7.59713 10.8018 7.80163C11.6124 8.13707 12.4171 8.1318 13.2621 7.78639C13.624 7.63815 14.0012 7.54733 14.4154 7.50866C15.3435 7.42047 16.2907 7.81276 16.7193 8.46139C16.9407 8.79625 17.0491 9.18502 17.0606 9.68541C17.0782 10.4542 16.8629 11.1772 16.4378 11.7766Z" fill="#316094"/>
</svg>
