<svg width="28" height="29" viewBox="0 0 28 29" fill="none" xmlns="http://www.w3.org/2000/svg">
<path d="M0.35 21.1758H27.65C27.8435 21.1758 28 21.0191 28 20.8258V7.17584C28 6.98255 27.8435 6.82584 27.65 6.82584H0.35C0.156543 6.82584 0 6.98255 0 7.17584V20.8258C0 21.0191 0.156543 21.1758 0.35 21.1758ZM4.45293 16.1078C4.43618 14.9199 4.15215 13.7636 3.63228 12.764C2.79263 11.1493 2.19077 9.2222 1.98214 7.52584H26.0782C25.9823 9.28004 25.484 10.8738 24.5841 12.2637C24.0041 13.1604 23.626 14.1789 23.492 15.2093C23.4541 15.4984 23.4333 15.792 23.4291 16.082C23.4075 17.6743 23.3026 19.1128 23.1164 20.4758H16.5896C16.4954 19.4753 16.4729 18.7639 16.4729 18.7639C16.4729 17.454 15.4239 16.3474 14.1822 16.3474H13.6992C12.4578 16.3474 11.4088 17.454 11.4088 18.7535C11.4088 18.7613 11.3863 19.4741 11.2918 20.4758H4.76497C4.5798 19.1202 4.47523 17.6901 4.45293 16.1078ZM15.8865 20.4758H11.995C12.086 19.4894 12.1076 18.8052 12.1088 18.7639C12.1088 17.8495 12.8519 17.0474 13.6992 17.0474H14.1822C15.0295 17.0474 15.7729 17.8495 15.7729 18.7744C15.7741 18.8064 15.7956 19.4894 15.8865 20.4758ZM27.3 20.4758H23.822C24.0041 19.1122 24.1077 17.676 24.1291 16.0916C24.1326 15.8286 24.1517 15.5622 24.1859 15.2998C24.3069 14.372 24.6477 13.4536 25.172 12.6441C26.1455 11.14 26.6818 9.41817 26.779 7.52584H27.3V20.4758ZM0.7 7.52584H1.27742C1.48645 9.32313 2.12079 11.3751 3.01123 13.087C3.4812 13.9904 3.73755 15.0384 3.75293 16.1178C3.77504 17.6922 3.87852 19.1197 4.05944 20.4758H0.7V7.52584Z" fill="#316094"/>
<path d="M1.64199 5.00506C1.82622 5.0512 2.01899 4.93739 2.06582 4.74957C2.55561 2.77313 4.16889 1.31725 6.38066 0.855136C8.00351 0.516073 9.625 0.7285 11.3377 1.50489C13.1397 2.3211 14.93 2.30794 16.8113 1.46524C17.6811 1.07542 18.5876 0.835995 19.5822 0.733456C21.8887 0.497445 24.165 1.53975 25.2455 3.33077C25.5073 3.76519 25.7038 4.23158 25.8467 4.75709C25.8891 4.91295 26.0302 5.01549 26.184 5.01549C26.2144 5.01549 26.2456 5.01138 26.276 5.00301C26.4626 4.95243 26.5727 4.76016 26.5221 4.57354C26.3621 3.9848 26.1406 3.45997 25.845 2.96932C24.6275 0.950839 22.079 -0.228873 19.5104 0.037216C18.4406 0.147445 17.4641 0.405673 16.5248 0.826425C14.8371 1.58231 13.2347 1.59564 11.6269 0.86727C9.79931 0.0392668 7.98505 -0.195548 6.23779 0.169833C3.756 0.688339 1.94243 2.33734 1.38632 4.58106C1.33984 4.76871 1.45434 4.95858 1.64199 5.00506Z" fill="#316094"/>
<path d="M7.74093 27.8128C8.0318 27.9388 8.31412 28.0017 8.58619 28.0017C8.86886 28.0017 9.14058 27.9338 9.39932 27.7983C10.367 27.2911 11.1015 25.8128 11.582 23.4047C11.62 23.2152 11.4969 23.0308 11.3072 22.993C11.1179 22.9545 10.9333 23.0783 10.8957 23.2676C10.4647 25.4274 9.83477 26.7798 9.07428 27.1783C8.7588 27.3436 8.41392 27.3415 8.04376 27.1824C6.82354 26.5362 5.87779 25.1721 5.3087 23.2374C5.25435 23.0525 5.06192 22.9458 4.87428 23.0003C4.68902 23.0549 4.58272 23.2495 4.63741 23.4349C5.26051 25.5548 6.3252 27.0645 7.74093 27.8128Z" fill="#316094"/>
<path d="M23.244 23.4349C23.2987 23.2495 23.1924 23.0549 23.0071 23.0003C22.8195 22.9457 22.627 23.0521 22.5727 23.2374C22.0036 25.1721 21.0578 26.5362 19.8622 27.1706C19.4675 27.3413 19.1229 27.3437 18.8071 27.1783C18.0466 26.7798 17.4167 25.4274 16.9857 23.2676C16.9481 23.0783 16.7628 22.9549 16.5742 22.993C16.3845 23.0308 16.2614 23.2152 16.2993 23.4047C16.7799 25.8128 17.5144 27.2911 18.4821 27.7983C18.7381 27.9323 19.0064 28.0001 19.2887 28.0001C19.5669 28.0001 19.8588 27.9342 20.1651 27.801C21.5562 27.0645 22.6209 25.5548 23.244 23.4349Z" fill="#316094"/>
</svg>
