<svg width="22" height="22" viewBox="0 0 22 22" fill="none" xmlns="http://www.w3.org/2000/svg">
<g clip-path="url(#clip0_513_780)">
<path d="M10.3343 2.04893C10.5438 1.40402 11.4562 1.40402 11.6657 2.04894L13.3125 7.11713C13.4062 7.40554 13.675 7.60081 13.9782 7.60081H19.3072C19.9854 7.60081 20.2673 8.46854 19.7187 8.86712L15.4074 11.9994C15.1621 12.1777 15.0594 12.4936 15.1531 12.7821L16.7999 17.8503C17.0094 18.4952 16.2713 19.0315 15.7227 18.6329L11.4114 15.5006C11.1661 15.3223 10.8339 15.3223 10.5886 15.5006L6.27729 18.6329C5.72869 19.0315 4.99056 18.4952 5.2001 17.8503L6.84686 12.7821C6.94057 12.4936 6.83791 12.1777 6.59257 11.9994L2.28131 8.86712C1.73271 8.46854 2.01465 7.60081 2.69276 7.60081H8.02177C8.32503 7.60081 8.59379 7.40554 8.68751 7.11712L10.3343 2.04893Z" fill="#316094"/>
</g>
<defs>
<clipPath id="clip0_513_780">
<rect width="22" height="22" fill="white"/>
</clipPath>
</defs>
</svg>
