<svg width="13" height="13" viewBox="0 0 13 13" fill="none" xmlns="http://www.w3.org/2000/svg">
<path fill-rule="evenodd" clip-rule="evenodd" d="M10.8573 2.715C10.9809 2.66299 11.1161 2.64506 11.249 2.66306C11.3818 2.68106 11.5074 2.73433 11.6127 2.81734C11.7179 2.90035 11.799 3.01005 11.8475 3.13504C11.896 3.26002 11.9101 3.39572 11.8883 3.528L10.7543 10.4065C10.6443 11.07 9.91632 11.4505 9.30782 11.12C8.79882 10.8435 8.04282 10.4175 7.36282 9.973C7.02282 9.7505 5.98132 9.038 6.10932 8.531C6.21932 8.0975 7.96932 6.4685 8.96932 5.5C9.36182 5.1195 9.18282 4.9 8.71932 5.25C7.56832 6.119 5.72032 7.4405 5.10932 7.8125C4.57032 8.1405 4.28932 8.1965 3.95332 8.1405C3.34032 8.0385 2.77182 7.8805 2.30782 7.688C1.68082 7.428 1.71132 6.566 2.30732 6.315L10.8573 2.715Z" fill="#316094"/>
</svg>
