<svg width="20" height="20" viewBox="0 0 20 20" fill="none" xmlns="http://www.w3.org/2000/svg">
<path d="M4.7562 9.87447C7.70901 8.60437 9.67801 7.76707 10.6631 7.36247C13.4761 6.20737 14.0606 6.00677 14.4415 6.00007C14.5253 5.99867 14.7127 6.01917 14.834 6.11637C14.9365 6.19847 14.9647 6.30937 14.9782 6.38717C14.9917 6.46497 15.0085 6.64227 14.9951 6.78087C14.8427 8.36207 14.1831 12.1993 13.8476 13.9703C13.7056 14.7197 13.426 14.971 13.1553 14.9955C12.5671 15.049 12.1205 14.6118 11.5508 14.2431C10.6593 13.6661 10.1557 13.307 9.29031 12.744C8.29031 12.0934 8.93861 11.7358 9.50851 11.1514C9.65761 10.9985 12.2493 8.67117 12.2995 8.46007C12.3057 8.43357 12.3115 8.33517 12.2523 8.28327C12.1931 8.23127 12.1057 8.24906 12.0426 8.26316C11.9532 8.28316 10.5291 9.21247 7.7702 11.0512C7.3659 11.3252 6.9998 11.4587 6.6717 11.4517C6.3101 11.444 5.61441 11.2498 5.09721 11.0839C4.46292 10.8803 3.95876 10.7727 4.00266 10.427C4.02553 10.2469 4.27672 10.0627 4.7562 9.87447Z" fill="#316094"/>
</svg>
