<svg width="21" height="20" viewBox="0 0 21 20" fill="none" xmlns="http://www.w3.org/2000/svg">
<g clip-path="url(#clip0_229_27)">
<circle cx="10.5" cy="10" r="10" fill="white"/>
<path d="M10.5 0C4.97548 0 0.5 4.47613 0.5 10C0.5 15.5239 4.97613 20 10.5 20C16.0245 20 20.5 15.5239 20.5 10C20.5 4.47613 16.0239 0 10.5 0ZM15.4116 6.85097L13.7703 14.5852C13.649 15.1335 13.3226 15.2665 12.8671 15.0084L10.3671 13.1658L9.16129 14.3271C9.02839 14.46 8.91548 14.5729 8.65742 14.5729L8.83484 12.0284L13.4677 7.84258C13.6697 7.66516 13.4232 7.56452 13.1568 7.74194L7.43097 11.3465L4.96323 10.5761C4.4271 10.4071 4.41484 10.04 5.07613 9.78194L14.7174 6.06387C15.1652 5.90258 15.5561 6.1729 15.411 6.85032L15.4116 6.85097Z" fill="#316094"/>
</g>
<defs>
<clipPath id="clip0_229_27">
<rect width="20" height="20" fill="white" transform="translate(0.5)"/>
</clipPath>
</defs>
</svg>
