<svg width="22" height="14" viewBox="0 0 22 14" fill="none" xmlns="http://www.w3.org/2000/svg">
<g clip-path="url(#clip0_475_411)">
<path d="M1.5 2.8C1.5 1.80589 2.30589 1 3.3 1H18.9C19.8941 1 20.7 1.80589 20.7 2.8V11.2C20.7 12.1941 19.8941 13 18.9 13H3.3C2.30589 13 1.5 12.1941 1.5 11.2V2.8Z" stroke="#316094"/>
<path d="M13.4992 7.0001C13.4992 8.32558 12.4247 9.4001 11.0992 9.4001C9.77374 9.4001 8.69922 8.32558 8.69922 7.0001C8.69922 5.67462 9.77374 4.6001 11.0992 4.6001C12.4247 4.6001 13.4992 5.67462 13.4992 7.0001Z" stroke="#316094"/>
</g>
<defs>
<clipPath id="clip0_475_411">
<rect width="21" height="14" fill="white" transform="translate(0.5)"/>
</clipPath>
</defs>
</svg>
