<svg width="20" height="20" viewBox="0 0 20 20" fill="none" xmlns="http://www.w3.org/2000/svg">
<path d="M10.5335 14C6.4336 14 4.0959 11.0024 4 6.0064H6.0619C6.1279 9.6701 7.6384 11.2202 8.8372 11.5404V6.0064H10.7732V9.1641C11.954 9.0296 13.2008 7.5885 13.6204 6H15.5505C15.3931 6.8223 15.0787 7.601 14.627 8.2876C14.1753 8.9742 13.5959 9.5539 12.9251 9.9904C13.6737 10.3886 14.3348 10.9518 14.8648 11.6429C15.3949 12.334 15.7818 13.1374 16 14H13.8721C13.4166 12.482 12.2777 11.3034 10.7732 11.1433V14H10.5395H10.5335Z" fill="#316094"/>
</svg>
