<svg width="13" height="13" viewBox="0 0 13 13" fill="none" xmlns="http://www.w3.org/2000/svg">
<g clip-path="url(#clip0_220_509)">
<path fill-rule="evenodd" clip-rule="evenodd" d="M5.88773 4.11205C5.78793 3.84667 5.67266 3.8656 5.59593 3.8627C5.51912 3.85986 5.45188 3.86127 5.34812 3.86296C5.26033 3.86439 5.11651 3.887 4.99112 4.01326C4.86557 4.13931 4.5138 4.44245 4.48947 5.08494C4.4653 5.72732 4.91322 6.36564 4.97577 6.45498C5.03828 6.54465 5.8311 7.93707 7.14887 8.50975C8.46679 9.08225 8.47368 8.90774 8.71544 8.89494C8.95743 8.88228 9.50589 8.60792 9.62713 8.30729C9.74835 8.00666 9.7581 7.74528 9.72723 7.68953C9.69639 7.63396 9.61005 7.59786 9.48091 7.52781C9.35162 7.45761 8.71696 7.1177 8.59794 7.06961C8.47886 7.0217 8.392 6.99676 8.2993 7.12419C8.20656 7.25127 7.94326 7.53596 7.86346 7.62032C7.7833 7.70469 7.70617 7.71252 7.57691 7.64211C7.44801 7.57208 7.02911 7.41833 6.54337 6.955C6.16541 6.59453 5.91733 6.15711 5.84542 6.02368C5.77349 5.89016 5.84495 5.82203 5.91339 5.75957C5.97475 5.70315 6.05066 5.61189 6.11945 5.5381C6.18787 5.46432 6.21201 5.41084 6.25916 5.32522C6.3062 5.23979 6.28729 5.16275 6.25677 5.09621C6.22623 5.0297 5.98748 4.37743 5.88773 4.11205Z" fill="#316094"/>
<path d="M7.06395 2C8.24166 2 9.34859 2.45473 10.1807 3.28044C11.0113 4.10459 11.4688 5.19999 11.4688 6.36481C11.4688 7.52952 11.0113 8.62489 10.1807 9.44909C9.34852 10.2748 8.24162 10.7296 7.06395 10.7296C6.3185 10.7296 5.58177 10.5416 4.93334 10.1859L4.6517 10.0314L4.34553 10.1286L2.90525 10.5861L3.35935 9.24671L3.4718 8.91505L3.28967 8.61591C2.87734 7.93862 2.65939 7.16019 2.65939 6.36481C2.65939 5.19999 3.11684 4.10459 3.94745 3.28041C4.77959 2.45473 5.88638 2 7.06395 2ZM7.06395 1.25C4.2173 1.25 1.90939 3.53987 1.90939 6.36481C1.90939 7.33112 2.17967 8.23491 2.64905 9.00591L1.71875 11.75L4.57259 10.8434C5.31106 11.2485 6.16037 11.4796 7.06395 11.4796C9.91098 11.4796 12.2188 9.18943 12.2188 6.36481C12.2188 3.53987 9.91098 1.25 7.06395 1.25Z" fill="#316094"/>
</g>
<defs>
<clipPath id="clip0_220_509">
<rect width="12" height="12" fill="white" transform="translate(0.96875 0.5)"/>
</clipPath>
</defs>
</svg>
