<svg width="20" height="20" viewBox="0 0 20 20" fill="none" xmlns="http://www.w3.org/2000/svg">
<path d="M15.7 7.2143C15.55 6.7143 15.175 6.3571 14.65 6.2143C13.75 6 9.925 6 9.925 6C9.925 6 6.175 6 5.2 6.2143C4.675 6.3571 4.3 6.7143 4.15 7.2143C4 8.1429 4 10 4 10C4 10 4 11.8571 4.225 12.7857C4.375 13.2857 4.75 13.6429 5.275 13.7857C6.175 14 10 14 10 14C10 14 13.75 14 14.725 13.7857C15.25 13.6429 15.625 13.2857 15.775 12.7857C16 11.8571 16 10 16 10C16 10 16 8.1429 15.7 7.2143ZM8.8 11.7143V8.2857L11.95 10L8.8 11.7143Z" fill="#316094"/>
</svg>
