<svg width="617" height="95" viewBox="0 0 617 95" fill="none" xmlns="http://www.w3.org/2000/svg">
<path d="M0 93.5316L39.3536 0.631409L78.7157 93.5316H66.7208L39.3541 25.3216L11.9902 93.5316H0ZM25.8126 59.0767H52.897L57.2672 69.6789H21.4388L25.8126 59.0767Z" fill="white"/>
<path d="M159.667 76.9414C157.773 78.9903 156.213 81.1583 152.09 84.352C146.626 88.5856 140.815 91.5152 134.06 93.1068C130.574 93.948 126.748 94.3686 122.582 94.3686C115.44 94.2845 108.979 93.0225 103.197 90.5828C92.2251 85.8836 83.7787 77.0604 79.3484 66.1008C77.2228 60.5483 76.1602 54.6592 76.1602 48.4336C76.1602 36.0122 80.2439 23.6807 89.0409 14.6133C97.1099 6.12989 109.309 0.6315 121.14 0.6315C130.612 0.6315 140.206 2.68195 148.156 7.9916C151.412 10.1661 154.752 12.852 159.804 18.3374L150.681 25.8364C147.321 21.8339 145.964 20.6867 144.148 19.3231C137.639 14.4378 129.441 12.5751 121.418 12.5751C112.575 12.5751 104.44 16.6751 98.4399 22.9421C92.2103 29.4489 89.0409 38.9561 89.0409 47.8026C89.0409 56.8458 91.7197 65.5708 97.9729 72.3042C104.498 79.1299 113.394 82.6325 122.837 82.6325C131.288 82.6325 138.005 79.7954 144.626 74.7828C147.442 72.6496 149.261 70.1812 150.372 69.3565L159.667 76.9414Z" fill="white"/>
<path d="M159.667 93.5317L199.02 0.6315L238.382 93.5317H226.387L199.02 25.3217L171.656 93.5317H159.667ZM185.479 59.0768H212.564L216.934 69.679H181.105L185.479 59.0768Z" fill="white"/>
<path d="M246.698 93.5325V1.4692H272.064C278.996 1.4692 286.624 1.41504 293.527 3.63144C300.951 6.01448 307.569 10.8689 312.57 16.6735C320.093 25.4078 322.667 37.1529 322.667 48.5832C322.667 60.8761 318.141 73.7247 308.748 82.1331C300.086 90.8122 288.467 93.5325 276.57 93.5325H246.698ZM259.112 81.6753L274.124 81.6904C283.321 81.6904 292.74 79.0281 299.618 72.7768C306.802 66.4216 309.919 57.1777 309.919 47.8192C309.919 38.2324 306.734 28.6214 299.361 22.0975C292.817 16.3064 285.77 14.0234 275.282 13.3114L259.112 13.3253V81.6753Z" fill="white"/>
<path d="M334.3 1.46915H395.662V13.1845H346.576V41.65H388.749V53.3688H346.576V81.8574L395.662 81.8162L395.673 93.5324H334.3V1.46915Z" fill="white"/>
<path d="M409.342 93.5318L409.346 0.6315L455.05 63.2677L500.748 0.63152V93.5317H488.76V35.7791L455.044 82.1003L421.196 35.7791V93.5318H409.342Z" fill="white"/>
<path d="M520.331 1.46915H532.462V93.5324H520.331V1.46915Z" fill="white"/>
<path d="M538.253 93.5317L577.606 0.6315L616.968 93.5317H604.973L577.606 25.3217L550.242 93.5317H538.253ZM564.065 59.0768H591.15L595.52 69.679H559.691L564.065 59.0768Z" fill="white"/>
</svg>
