<svg width="157" height="24" viewBox="0 0 157 24" fill="none" xmlns="http://www.w3.org/2000/svg">
<path d="M0 23.6277L10.0124 0L20.0269 23.6277H16.9751L10.0125 6.27958L3.05056 23.6277H0ZM6.56725 14.8647H13.4581L14.5699 17.5612H5.45448L6.56725 14.8647Z" fill="white"/>
<path d="M40.6248 19.4083C40.1428 19.9294 39.7459 20.4808 38.6969 21.293C37.3067 22.3698 35.8283 23.1149 34.1097 23.5197C33.2228 23.7337 32.2494 23.8406 31.1895 23.8406C29.3724 23.8192 27.7285 23.4983 26.2575 22.8778C23.466 21.6826 21.3171 19.4385 20.1899 16.6511C19.6492 15.2389 19.3788 13.7411 19.3788 12.1578C19.3788 8.99855 20.4178 5.86223 22.6559 3.55607C24.7088 1.39843 27.8126 0 30.8225 0C33.2325 0 35.6732 0.521502 37.6961 1.87193C38.5243 2.42497 39.3741 3.10811 40.6596 4.50324L38.3384 6.41049C37.4836 5.39251 37.1384 5.10075 36.6762 4.75392C35.0203 3.51143 32.9345 3.03768 30.8933 3.03768C28.6435 3.03768 26.5738 4.08046 25.0472 5.67438C23.4623 7.32928 22.6559 9.74729 22.6559 11.9973C22.6559 14.2973 23.3375 16.5163 24.9284 18.2289C26.5885 19.9649 28.8518 20.8557 31.2544 20.8557C33.4044 20.8557 35.1135 20.1341 36.7978 18.8593C37.5145 18.3167 37.9771 17.6889 38.2598 17.4792L40.6248 19.4083Z" fill="white"/>
<path d="M40.6239 23.6277L50.6362 0L60.6507 23.6277H57.5989L50.6362 6.27958L43.6743 23.6277H40.6239ZM47.1911 14.8647H54.0821L55.1938 17.5612H46.0783L47.1911 14.8647Z" fill="white"/>
<path d="M62.7661 23.6239V0.209014H69.2196C70.9834 0.209014 72.9241 0.195239 74.6804 0.758947C76.5691 1.36504 78.2529 2.5997 79.5251 4.07601C81.4393 6.29744 82.0942 9.28462 82.0942 12.1918C82.0942 15.3183 80.9426 18.5861 78.553 20.7247C76.3492 22.9321 73.3928 23.6239 70.3662 23.6239H62.7661ZM65.9245 20.6082L69.7439 20.6121C72.0837 20.6121 74.4802 19.935 76.23 18.345C78.0577 16.7287 78.8508 14.3776 78.8508 11.9974C78.8508 9.55917 78.0405 7.11477 76.1647 5.4555C74.4996 3.98263 72.7067 3.40199 70.0385 3.22089L65.9245 3.22443V20.6082Z" fill="white"/>
<path d="M85.0522 0.208984H100.664V3.18861H88.1754V10.4284H98.9052V13.4089H88.1754V20.6545L100.664 20.644L100.667 23.6239H85.0522V0.208984Z" fill="white"/>
<path d="M104.144 23.6278L104.145 0L115.773 15.9306L127.399 5.07293e-06V23.6278H124.349V8.93926L115.771 20.7204L107.16 8.93926V23.6278H104.144Z" fill="white"/>
<path d="M132.384 0.208984H135.47V23.6239H132.384V0.208984Z" fill="white"/>
<path d="M136.943 23.6277L146.956 0L156.97 23.6277H153.918L146.956 6.27958L139.994 23.6277H136.943ZM143.511 14.8647H150.402L151.513 17.5612H142.398L143.511 14.8647Z" fill="white"/>
</svg>
