<svg width="147" height="23" viewBox="0 0 147 23" fill="none" xmlns="http://www.w3.org/2000/svg">
<path d="M0 22.4614L9.37441 0.339157L18.7509 22.4614H15.8936L9.37455 6.21863L2.85619 22.4614H0ZM6.14881 14.2567H12.6006L13.6416 16.7814H5.10695L6.14881 14.2567Z" fill="#316094"/>
<path d="M38.0363 18.5109C37.5851 18.9988 37.2135 19.5151 36.2313 20.2756C34.9297 21.2838 33.5455 21.9814 31.9364 22.3604C31.106 22.5607 30.1946 22.6608 29.2022 22.6608C27.5009 22.6408 25.9617 22.3403 24.5845 21.7593C21.9709 20.6403 19.9588 18.5393 18.9035 15.9295C18.3972 14.6072 18.144 13.2049 18.144 11.7224C18.144 8.76445 19.1168 5.82797 21.2124 3.66875C23.1345 1.64859 26.0405 0.339256 28.8586 0.339256C31.1151 0.339256 33.4003 0.82753 35.2942 2.09192C36.0697 2.60972 36.8654 3.24933 38.0689 4.55557L35.8957 6.3413C35.0953 5.38818 34.7721 5.115 34.3393 4.79028C32.7889 3.62695 30.836 3.18338 28.9249 3.18338C26.8185 3.18338 24.8806 4.15972 23.4513 5.65208C21.9674 7.20154 21.2124 9.46549 21.2124 11.5721C21.2124 13.7256 21.8505 15.8032 23.34 17.4067C24.8944 19.0321 27.0135 19.8661 29.263 19.8661C31.276 19.8661 32.8762 19.1905 34.4532 17.9969C35.1242 17.4889 35.5573 16.9011 35.8221 16.7047L38.0363 18.5109Z" fill="#316094"/>
<path d="M38.0352 22.4615L47.4096 0.339256L56.786 22.4615H53.9286L47.4096 6.21872L40.8912 22.4615H38.0352ZM44.184 14.2568H50.6358L51.6768 16.7815H43.142L44.184 14.2568Z" fill="#316094"/>
<path d="M58.7666 22.4616V0.538518H64.8089C66.4603 0.538518 68.2774 0.525621 69.9218 1.05341C71.6902 1.62089 73.2667 2.77688 74.4578 4.15913C76.25 6.23902 76.8632 9.03587 76.8632 11.7578C76.8632 14.6851 75.785 17.7447 73.5476 19.747C71.4842 21.8138 68.7162 22.4616 65.8824 22.4616H58.7666ZM61.7237 19.638L65.2998 19.6416C67.4905 19.6416 69.7343 19.0076 71.3727 17.519C73.0839 16.0056 73.8265 13.8044 73.8265 11.5758C73.8265 9.29293 73.0678 7.00427 71.3115 5.45072C69.7525 4.0717 68.0738 3.52805 65.5756 3.35849L61.7237 3.36181V19.638Z" fill="#316094"/>
<path d="M79.6323 0.538559H94.2493V3.32834H82.5565V10.1068H92.6026V12.8974H82.5565V19.6814L94.2493 19.6716L94.252 22.4616H79.6323V0.538559Z" fill="#316094"/>
<path d="M97.5073 22.4616L97.5083 0.339256L108.395 15.2548L119.281 0.339261V22.4615H116.425V8.70895L108.394 19.7394L100.331 8.70895V22.4616H97.5073Z" fill="#316094"/>
<path d="M123.951 0.538559H126.84V22.4616H123.951V0.538559Z" fill="#316094"/>
<path d="M128.218 22.4615L137.592 0.339256L146.969 22.4615H144.111L137.592 6.21872L131.074 22.4615H128.218ZM134.367 14.2568H140.818L141.859 16.7815H133.325L134.367 14.2568Z" fill="#316094"/>
</svg>
